<svg width="34" height="24" viewBox="0 0 34 24" fill="none" xmlns="http://www.w3.org/2000/svg">
<rect x="0.5" y="0.5" width="33" height="23" rx="3.5" fill="white"/>
<rect x="0.5" y="0.5" width="33" height="23" rx="3.5" stroke="#F2F4F7"/>
<path fill-rule="evenodd" clip-rule="evenodd" d="M8.75165 7.97241C8.44692 8.33548 7.95937 8.62184 7.47181 8.58093C7.41087 8.09002 7.64957 7.56843 7.9289 7.24627C8.23362 6.87297 8.76688 6.60706 9.19857 6.58661C9.24936 7.09797 9.05129 7.59911 8.75165 7.97241ZM9.1929 8.6781C8.76337 8.65321 8.37144 8.80816 8.05488 8.93333C7.85116 9.01387 7.67864 9.08208 7.5474 9.08208C7.40011 9.08208 7.22048 9.01022 7.01879 8.92955C6.75451 8.82384 6.45237 8.70298 6.13552 8.70878C5.40927 8.71901 4.7338 9.13321 4.36305 9.79287C3.60125 11.1122 4.16498 13.0656 4.9014 14.1395C5.26198 14.6713 5.69367 15.2542 6.26249 15.2338C6.51273 15.2243 6.69274 15.1474 6.87904 15.0678C7.09351 14.9761 7.31632 14.881 7.66421 14.881C8.00004 14.881 8.2131 14.9737 8.41762 15.0627C8.61209 15.1473 8.79885 15.2285 9.07609 15.2236C9.66522 15.2133 10.036 14.6917 10.3965 14.1599C10.7857 13.5891 10.9567 13.0321 10.9826 12.9475L10.9857 12.9378C10.9851 12.9371 10.9802 12.9349 10.9718 12.931C10.8417 12.871 9.84743 12.4127 9.83789 11.1838C9.82832 10.1522 10.6265 9.62961 10.7522 9.54734C10.7598 9.54233 10.765 9.53895 10.7673 9.53719C10.2594 8.78037 9.46715 8.69855 9.1929 8.6781ZM13.2707 15.1672V7.195H16.2418C17.7755 7.195 18.8471 8.25864 18.8471 9.81318C18.8471 11.3677 17.7552 12.4416 16.2011 12.4416H14.4998V15.1672H13.2707ZM14.5002 8.23795H15.9172C16.9837 8.23795 17.5931 8.81068 17.5931 9.81807C17.5931 10.8255 16.9837 11.4033 15.9121 11.4033H14.5002V8.23795ZM22.9056 14.2113C22.5806 14.8351 21.8645 15.2289 21.0925 15.2289C19.9498 15.2289 19.1525 14.5436 19.1525 13.5107C19.1525 12.488 19.9244 11.8999 21.3515 11.813L22.8853 11.7209V11.2811C22.8853 10.6317 22.4638 10.2789 21.7121 10.2789C21.0925 10.2789 20.6405 10.601 20.5491 11.0919H19.442C19.4775 10.059 20.4425 9.30727 21.7477 9.30727C23.1545 9.30727 24.0687 10.0487 24.0687 11.1993V15.1675H22.931V14.2113H22.9056ZM21.4223 14.2827C20.7671 14.2827 20.3507 13.9657 20.3507 13.4799C20.3507 12.9787 20.7519 12.6872 21.5188 12.6412L22.885 12.5543V13.0043C22.885 13.7509 22.2552 14.2827 21.4223 14.2827ZM27.842 15.4794C27.3494 16.8754 26.7856 17.3356 25.5871 17.3356C25.4957 17.3356 25.1909 17.3254 25.1198 17.305V16.3487C25.196 16.3589 25.3839 16.3692 25.4804 16.3692C26.0238 16.3692 26.3286 16.1391 26.5165 15.5408L26.6282 15.1879L24.5459 9.38393H25.8308L27.2783 14.0936H27.3037L28.7511 9.38393H30.0005L27.842 15.4794Z" fill="black"/>
</svg>
