<svg width="122" height="86" viewBox="0 0 122 86" fill="none" xmlns="http://www.w3.org/2000/svg">
<path d="M60.3253 85.3735L60.5324 -8.81915e-06" stroke="black" stroke-width="0.414236"/>
<path d="M13.5718 68.0654C15.0259 68.0654 16.0852 67.6253 16.7476 66.745C17.4078 65.8648 17.822 64.4236 17.9903 62.4214C18.1629 60.4193 18.2492 57.757 18.2492 54.4301V31.8457C18.2492 28.4865 18.1629 25.8134 17.9903 23.8285C17.822 21.8436 17.4078 20.4111 16.7476 19.5308C16.0852 18.6506 15.0259 18.2104 13.5718 18.2104V17.7013H49.9468V24.5707H49.4377V24.3636C49.4377 22.6678 47.8347 21.218 44.6308 20.0141C41.4248 18.8124 36.8898 18.2104 31.0214 18.2104H22.6245V40.7431C22.9288 40.07 23.6084 39.4033 24.6612 38.741C25.7141 38.0808 27.0021 37.7485 28.5274 37.7485C29.7809 37.7485 30.9265 37.9103 31.9621 38.2318C32.9977 38.5554 33.9815 38.92 34.9135 39.3278C35.8456 39.7313 36.7862 40.0937 37.7355 40.4152C38.6848 40.7388 39.7204 40.8985 40.8423 40.8985C41.8261 40.8985 42.6977 40.6374 43.4571 40.1131C44.2209 39.5846 44.6049 38.8791 44.6049 37.9988H45.1141C45.1141 39.4896 44.5273 40.7949 43.3536 41.9168C42.1842 43.0387 40.6006 43.5996 38.5985 43.5996C37.0386 43.5996 35.6816 43.3709 34.5252 42.9092C33.3731 42.4497 32.3418 41.9319 31.4271 41.3558C30.5123 40.7819 29.6363 40.2663 28.8036 39.8111C27.9751 39.3515 27.1035 39.1207 26.1887 39.1207C24.864 39.1207 23.9385 39.5694 23.4099 40.467C22.8856 41.3645 22.6245 42.4087 22.6245 43.5996V54.4301C22.6245 57.757 22.7065 60.4193 22.8748 62.4214C23.0474 64.4236 23.4638 65.8648 24.1262 66.745C24.7863 67.6253 25.8478 68.0654 27.3106 68.0654V68.5746H13.5718V68.0654Z" fill="#1C222B"/>
<path d="M69.4265 29.9126C69.4265 27.5372 70.1277 25.3517 71.5322 23.3538C72.941 21.3517 75.0014 19.7422 77.7112 18.5211C80.4253 17.2957 83.7349 16.6829 87.6356 16.6829C90.7532 16.6829 93.4565 16.9052 95.7477 17.3474C98.0368 17.7854 100.166 18.3442 102.134 19.0216V25.8393H101.625C101.625 25.8393 101.489 25.5523 101.219 24.9763C100.947 24.4024 100.49 23.6904 99.8469 22.8447C99.2018 21.9946 98.3453 21.1446 97.2752 20.2989C96.2094 19.4488 94.8783 18.7347 93.2796 18.1586C91.6852 17.5848 89.8039 17.2957 87.6356 17.2957C84.4814 17.2957 81.8104 17.8566 79.6184 18.9785C77.4308 20.0961 75.7781 21.52 74.6562 23.2503C73.5387 24.9763 72.982 26.7886 72.982 28.6871C72.982 30.4196 73.4308 31.8953 74.3283 33.1143C75.2301 34.3354 76.4534 35.3883 77.996 36.2728C79.5364 37.1531 81.2581 37.9341 83.1567 38.6115C85.0553 39.2911 87.0229 39.9707 89.0595 40.6482C91.0962 41.3278 93.0638 42.0678 94.9624 42.8661C96.861 43.66 98.5805 44.6179 100.123 45.7398C101.67 46.8574 102.893 48.2037 103.791 49.7786C104.688 51.3557 105.137 53.2629 105.137 55.5003C105.137 57.2672 104.693 58.9911 103.808 60.6696C102.928 62.3438 101.655 63.8518 99.9936 65.1916C98.3367 66.5336 96.3367 67.6037 93.9959 68.402C91.6528 69.1959 89.0078 69.5929 86.0563 69.5929C83.8169 69.5929 81.681 69.2693 79.6443 68.6263C77.612 67.9834 75.7479 67.1765 74.0521 66.21C72.3542 65.2434 70.8785 64.3028 69.625 63.388V56.5704H70.1342C70.1342 56.5704 70.3952 56.9803 70.9195 57.7958C71.4481 58.607 72.2312 59.6146 73.2668 60.8163C74.3024 62.0201 75.5732 63.224 77.0812 64.4322C78.5872 65.6361 80.3347 66.6458 82.3196 67.4613C84.3045 68.2725 86.4986 68.6781 88.9042 68.6781C90.7726 68.6781 92.5137 68.3739 94.1253 67.7633C95.7348 67.1549 97.1415 66.3222 98.3453 65.2693C99.547 64.2165 100.488 63.0298 101.167 61.7052C101.845 60.3826 102.186 59.0105 102.186 57.5887C102.186 55.6901 101.728 54.0547 100.813 52.6783C99.8987 51.304 98.6582 50.1238 97.094 49.14C95.5341 48.1562 93.7801 47.2759 91.8298 46.4993C89.8794 45.7183 87.8686 44.9696 85.7974 44.2555C83.7306 43.5435 81.7241 42.7798 79.7738 41.9686C77.8234 41.153 76.0672 40.2124 74.5095 39.1466C72.9497 38.0765 71.7134 36.7885 70.7987 35.2804C69.8839 33.768 69.4265 31.9794 69.4265 29.9126Z" fill="#1C222B"/>
<mask id="mask0_2349_21013" style="mask-type:luminance" maskUnits="userSpaceOnUse" x="0" y="37" width="122" height="15">
<path d="M0.00012207 37.3459H121.479V51.4947H0.00012207V37.3459Z" fill="white"/>
</mask>
<g mask="url(#mask0_2349_21013)">
<path d="M0.00012207 37.3459H121.477V51.4947H0.00012207V37.3459Z" fill="#FDF0E3"/>
</g>
<path d="M30.974 41.908V44.1086H33.8737V44.6264H30.974V47.0083H30.3785V41.3902H34.2275V41.908H30.974Z" fill="#1C222B"/>
<path d="M37.8943 41.0536H38.4639V47.0083H37.8943V41.0536Z" fill="#1C222B"/>
<path d="M46.2872 45.0752H42.7576C42.7856 45.5132 42.9517 45.867 43.2581 46.1367C43.5623 46.4085 43.9485 46.5423 44.4145 46.5423C44.6777 46.5423 44.9194 46.497 45.1394 46.4042C45.3573 46.3136 45.5472 46.1755 45.709 45.99L46.0283 46.3611C45.8428 46.5854 45.6097 46.758 45.3293 46.8788C45.0466 46.9954 44.736 47.0514 44.3972 47.0514C43.9657 47.0514 43.5817 46.9608 43.2495 46.7753C42.9151 46.5854 42.654 46.3308 42.4641 46.0072C42.2786 45.6793 42.188 45.3082 42.188 44.894C42.188 44.4862 42.2764 44.1173 42.4555 43.7893C42.6324 43.4614 42.8784 43.209 43.1891 43.0299C43.504 42.8465 43.8579 42.7538 44.2505 42.7538C44.641 42.7538 44.9927 42.8465 45.3034 43.0299C45.6141 43.209 45.8557 43.4614 46.0283 43.7893C46.2052 44.113 46.2958 44.4797 46.2958 44.894L46.2872 45.0752ZM44.2505 43.2457C43.8406 43.2457 43.4997 43.3751 43.2236 43.634C42.9474 43.8929 42.7921 44.2338 42.7576 44.6523H45.7521C45.7111 44.2338 45.5537 43.8929 45.2775 43.634C45.0013 43.3751 44.6583 43.2457 44.2505 43.2457Z" fill="#1C222B"/>
<path d="M52.707 47.0083L51.3607 45.2392L50.0145 47.0083H49.3759L51.0414 44.8422L49.4535 42.7883H50.0921L51.3607 44.4366L52.6293 42.7883H53.2593L51.6714 44.8422L53.3542 47.0083H52.707Z" fill="#1C222B"/>
<path d="M58.5309 47.06C58.1102 47.06 57.7068 46.9953 57.3228 46.8615C56.943 46.7235 56.6496 46.5465 56.4425 46.3265L56.6755 45.8691C56.8762 46.0719 57.1437 46.2359 57.4781 46.361C57.8168 46.4883 58.1685 46.5509 58.5309 46.5509C59.0315 46.5509 59.4047 46.4603 59.6528 46.2747C59.9053 46.0913 60.0325 45.8518 60.0325 45.5584C60.0325 45.334 59.9635 45.1571 59.8254 45.0234C59.6917 44.8853 59.5255 44.7817 59.3249 44.7127C59.1286 44.6393 58.8546 44.5574 58.5051 44.4711C58.0779 44.3675 57.7391 44.2683 57.4867 44.169C57.2386 44.0655 57.025 43.9144 56.8481 43.7116C56.669 43.5045 56.5806 43.2284 56.5806 42.8832C56.5806 42.6027 56.6539 42.3459 56.805 42.1151C56.9538 41.8799 57.1804 41.6922 57.4867 41.5541C57.7974 41.4118 58.1814 41.3384 58.6431 41.3384C58.9646 41.3384 59.2774 41.3859 59.5838 41.4765C59.8945 41.5628 60.162 41.6836 60.3864 41.8389L60.1879 42.3136C59.9506 42.1582 59.6981 42.0439 59.4285 41.9684C59.1631 41.8886 58.902 41.8476 58.6431 41.8476C58.1534 41.8476 57.7823 41.9425 57.5299 42.1324C57.2818 42.3222 57.1588 42.5682 57.1588 42.8659C57.1588 43.0903 57.2278 43.2715 57.3659 43.4096C57.504 43.5477 57.6723 43.6555 57.8751 43.7289C58.0822 43.7979 58.3605 43.8756 58.7122 43.9619C59.1264 44.0611 59.4587 44.1604 59.7132 44.2639C59.9657 44.3632 60.1793 44.512 60.3519 44.7127C60.5288 44.909 60.6194 45.1787 60.6194 45.5239C60.6194 45.8065 60.5417 46.0654 60.3864 46.3006C60.2353 46.5314 60.0023 46.7148 59.6873 46.8529C59.3702 46.991 58.984 47.06 58.5309 47.06Z" fill="#1C222B"/>
<path d="M66.5226 42.7538C66.9196 42.7538 67.2778 42.8444 67.6014 43.0213C67.9228 43.2004 68.1731 43.4528 68.3522 43.7807C68.5356 44.1086 68.6283 44.4797 68.6283 44.894C68.6283 45.3212 68.5356 45.6966 68.3522 46.0245C68.1731 46.3481 67.9228 46.6005 67.6014 46.7839C67.2842 46.963 66.9239 47.0514 66.5226 47.0514C66.1818 47.0514 65.8754 46.9803 65.5992 46.8357C65.3231 46.6933 65.0944 46.4862 64.9175 46.2143V48.5617H64.3479V42.7883H64.8916V43.6254C65.0642 43.3449 65.2907 43.1292 65.5733 42.9781C65.8538 42.8293 66.171 42.7538 66.5226 42.7538ZM66.4795 46.5423C66.7772 46.5423 67.0447 46.4776 67.2821 46.3438C67.5237 46.2057 67.7136 46.0115 67.8516 45.757C67.9897 45.5045 68.0588 45.2176 68.0588 44.894C68.0588 44.579 67.9897 44.2963 67.8516 44.0482C67.7136 43.7958 67.5237 43.5995 67.2821 43.4614C67.0447 43.3233 66.7772 43.2543 66.4795 43.2543C66.1796 43.2543 65.9121 43.3233 65.6769 43.4614C65.4396 43.5995 65.254 43.7958 65.116 44.0482C64.9779 44.2963 64.9088 44.579 64.9088 44.894C64.9088 45.2176 64.9779 45.5045 65.116 45.757C65.254 46.0115 65.4396 46.2057 65.6769 46.3438C65.9121 46.4776 66.1796 46.5423 66.4795 46.5423Z" fill="#1C222B"/>
<path d="M73.8211 42.7538C74.3734 42.7538 74.7963 42.8918 75.0897 43.168C75.3831 43.4441 75.5298 43.8541 75.5298 44.3934V47.0083H74.9862V46.3524C74.8589 46.5725 74.669 46.7451 74.4166 46.8702C74.1685 46.991 73.8751 47.0514 73.5363 47.0514C73.0638 47.0514 72.6863 46.9393 72.4058 46.7149C72.1297 46.4905 71.9916 46.1928 71.9916 45.8174C71.9916 45.4614 72.121 45.1744 72.3799 44.9544C72.6388 44.7365 73.0531 44.6264 73.6226 44.6264H74.9603V44.3675C74.9603 44.0051 74.8589 43.7289 74.6582 43.5391C74.4554 43.3492 74.1598 43.2543 73.7693 43.2543C73.4975 43.2543 73.2386 43.2974 72.9926 43.3837C72.751 43.47 72.5396 43.5909 72.3627 43.7462L72.1038 43.3233C72.3152 43.1464 72.5719 43.0083 72.8718 42.9091C73.176 42.8055 73.4932 42.7538 73.8211 42.7538ZM73.6226 46.6027C73.9441 46.6027 74.2203 46.5293 74.4511 46.3783C74.6798 46.2294 74.8502 46.0159 74.9603 45.7397V45.0493H73.6399C72.915 45.0493 72.5525 45.3039 72.5525 45.8087C72.5525 46.0504 72.6431 46.2446 72.8287 46.3869C73.0185 46.5315 73.2817 46.6027 73.6226 46.6027Z" fill="#1C222B"/>
<path d="M81.3885 47.0514C80.9678 47.0514 80.5945 46.9608 80.2666 46.7753C79.9387 46.5919 79.6798 46.3352 79.4899 46.0072C79.3044 45.6793 79.2137 45.3082 79.2137 44.894C79.2137 44.4862 79.3044 44.1173 79.4899 43.7893C79.6798 43.4614 79.9387 43.209 80.2666 43.0299C80.5945 42.8465 80.9678 42.7538 81.3885 42.7538C81.7509 42.7538 82.0746 42.8271 82.3637 42.9695C82.6506 43.1076 82.875 43.3147 83.0368 43.5909L82.6139 43.8756C82.4758 43.6685 82.2989 43.5132 82.0875 43.4096C81.8739 43.3061 81.6409 43.2543 81.3885 43.2543C81.0821 43.2543 80.806 43.3233 80.56 43.4614C80.3184 43.5952 80.1285 43.7872 79.9904 44.0396C79.8567 44.2942 79.7919 44.579 79.7919 44.894C79.7919 45.2219 79.8567 45.5132 79.9904 45.7656C80.1285 46.0137 80.3184 46.2057 80.56 46.3438C80.806 46.4776 81.0821 46.5423 81.3885 46.5423C81.6409 46.5423 81.8739 46.4948 82.0875 46.3956C82.2989 46.292 82.4758 46.1345 82.6139 45.9209L83.0368 46.2143C82.875 46.4862 82.6484 46.6933 82.355 46.8357C82.0659 46.9803 81.7445 47.0514 81.3885 47.0514Z" fill="#1C222B"/>
<path d="M90.387 45.0752H86.8574C86.8855 45.5132 87.0516 45.867 87.358 46.1367C87.6622 46.4085 88.0483 46.5423 88.5144 46.5423C88.7776 46.5423 89.0192 46.497 89.2393 46.4042C89.4572 46.3136 89.647 46.1755 89.8088 45.99L90.1282 46.3611C89.9426 46.5854 89.7096 46.758 89.4291 46.8788C89.1465 46.9954 88.8358 47.0514 88.4971 47.0514C88.0656 47.0514 87.6816 46.9608 87.3493 46.7753C87.0149 46.5854 86.7539 46.3308 86.564 46.0072C86.3785 45.6793 86.2878 45.3082 86.2878 44.894C86.2878 44.4862 86.3763 44.1173 86.5554 43.7893C86.7323 43.4614 86.9782 43.209 87.2889 43.0299C87.6039 42.8465 87.9577 42.7538 88.3504 42.7538C88.7409 42.7538 89.0926 42.8465 89.4032 43.0299C89.7139 43.209 89.9556 43.4614 90.1282 43.7893C90.3051 44.113 90.3957 44.4797 90.3957 44.894L90.387 45.0752ZM88.3504 43.2457C87.9405 43.2457 87.5996 43.3751 87.3234 43.634C87.0473 43.8929 86.8919 44.2338 86.8574 44.6523H89.852C89.811 44.2338 89.6535 43.8929 89.3773 43.634C89.1012 43.3751 88.7582 43.2457 88.3504 43.2457Z" fill="#1C222B"/>
</svg>
