<svg width="122" height="86" viewBox="0 0 122 86" fill="none" xmlns="http://www.w3.org/2000/svg">
<g id="Frame 1618872419">
<path id="Vector" d="M60.3253 85.7471L60.5324 0.373526" stroke="#DE5D1D" stroke-width="0.414236"/>
<g id="Group">
<g id="Group_2">
<g id="Group_3">
<path id="Vector_2" d="M13.5718 68.4388C15.0259 68.4388 16.0852 67.9987 16.7476 67.1185C17.4078 66.2382 17.822 64.797 17.9903 62.7949C18.1629 60.7927 18.2492 58.1304 18.2492 54.8036V32.2191C18.2492 28.8599 18.1629 26.1868 17.9903 24.2019C17.822 22.2171 17.4078 20.7845 16.7476 19.9042C16.0852 19.024 15.0259 18.5839 13.5718 18.5839V18.0747H49.9468V24.9441H49.4377V24.737C49.4377 23.0412 47.8347 21.5914 44.6308 20.3875C41.4248 19.1858 36.8898 18.5839 31.0214 18.5839H22.6245V41.1166C22.9288 40.4434 23.6084 39.7768 24.6612 39.1144C25.7141 38.4542 27.0021 38.122 28.5274 38.122C29.7809 38.122 30.9265 38.2838 31.9621 38.6053C32.9977 38.9289 33.9815 39.2935 34.9135 39.7013C35.8456 40.1047 36.7862 40.4672 37.7355 40.7886C38.6848 41.1122 39.7204 41.2719 40.8423 41.2719C41.8261 41.2719 42.6977 41.0108 43.4571 40.4866C44.2209 39.958 44.6049 39.2525 44.6049 38.3722H45.1141C45.1141 39.8631 44.5273 41.1683 43.3536 42.2902C42.1842 43.4121 40.6006 43.9731 38.5985 43.9731C37.0386 43.9731 35.6816 43.7444 34.5252 43.2827C33.3731 42.8231 32.3418 42.3053 31.4271 41.7293C30.5123 41.1554 29.6363 40.6398 28.8036 40.1845C27.9751 39.725 27.1035 39.4941 26.1887 39.4941C24.864 39.4941 23.9385 39.9429 23.4099 40.8404C22.8856 41.7379 22.6245 42.7821 22.6245 43.9731V54.8036C22.6245 58.1304 22.7065 60.7927 22.8748 62.7949C23.0474 64.797 23.4638 66.2382 24.1262 67.1185C24.7863 67.9987 25.8478 68.4388 27.3106 68.4388V68.948H13.5718V68.4388Z" fill="#DE5D1D"/>
</g>
</g>
</g>
<g id="Group_4">
<g id="Group_5">
<g id="Group_6">
<path id="Vector_3" d="M69.4265 30.2863C69.4265 27.9109 70.1277 25.7254 71.5322 23.7276C72.941 21.7254 75.0014 20.1159 77.7112 18.8948C80.4253 17.6694 83.7349 17.0566 87.6356 17.0566C90.7532 17.0566 93.4565 17.2789 95.7477 17.7211C98.0368 18.1591 100.166 18.7179 102.134 19.3953V26.213H101.625C101.625 26.213 101.489 25.926 101.219 25.35C100.947 24.7761 100.49 24.0641 99.8469 23.2184C99.2018 22.3683 98.3453 21.5183 97.2752 20.6726C96.2094 19.8225 94.8783 19.1084 93.2796 18.5324C91.6852 17.9585 89.8039 17.6694 87.6356 17.6694C84.4814 17.6694 81.8104 18.2303 79.6184 19.3522C77.4308 20.4698 75.7781 21.8937 74.6562 23.624C73.5387 25.35 72.982 27.1623 72.982 29.0608C72.982 30.7933 73.4308 32.269 74.3283 33.488C75.2301 34.7091 76.4534 35.762 77.996 36.6465C79.5364 37.5268 81.2581 38.3078 83.1567 38.9852C85.0553 39.6648 87.0229 40.3444 89.0595 41.0219C91.0962 41.7015 93.0638 42.4415 94.9624 43.2398C96.861 44.0337 98.5805 44.9916 100.123 46.1135C101.67 47.2311 102.893 48.5774 103.791 50.1523C104.688 51.7295 105.137 53.6367 105.137 55.874C105.137 57.6409 104.693 59.3648 103.808 61.0433C102.928 62.7175 101.655 64.2256 99.9936 65.5653C98.3367 66.9073 96.3367 67.9774 93.9959 68.7757C91.6528 69.5696 89.0078 69.9666 86.0563 69.9666C83.8169 69.9666 81.681 69.643 79.6443 69C77.612 68.3571 75.7479 67.5502 74.0521 66.5837C72.3542 65.6171 70.8785 64.6765 69.625 63.7617V56.9441H70.1342C70.1342 56.9441 70.3952 57.354 70.9195 58.1695C71.4481 58.9807 72.2312 59.9883 73.2668 61.19C74.3024 62.3939 75.5732 63.5977 77.0812 64.8059C78.5872 66.0098 80.3347 67.0195 82.3196 67.835C84.3045 68.6462 86.4986 69.0518 88.9042 69.0518C90.7726 69.0518 92.5137 68.7476 94.1253 68.1371C95.7348 67.5287 97.1415 66.6959 98.3453 65.643C99.547 64.5902 100.488 63.4036 101.167 62.0789C101.845 60.7563 102.186 59.3842 102.186 57.9624C102.186 56.0638 101.728 54.4285 100.813 53.052C99.8987 51.6777 98.6582 50.4975 97.094 49.5137C95.5341 48.5299 93.7801 47.6497 91.8298 46.873C89.8794 46.092 87.8686 45.3433 85.7974 44.6292C83.7306 43.9172 81.7241 43.1535 79.7738 42.3423C77.8234 41.5267 76.0672 40.5861 74.5095 39.5203C72.9497 38.4502 71.7134 37.1622 70.7987 35.6541C69.8839 34.1417 69.4265 32.3532 69.4265 30.2863Z" fill="#DE5D1D"/>
</g>
</g>
</g>
<g id="Clip path group">
<mask id="mask0_2349_21180" style="mask-type:luminance" maskUnits="userSpaceOnUse" x="0" y="37" width="122" height="15">
<g id="9c151f290b">
<path id="Vector_4" d="M0.00012207 37.7192H121.479V51.868H0.00012207V37.7192Z" fill="white"/>
</g>
</mask>
<g mask="url(#mask0_2349_21180)">
<g id="Group_7">
<path id="Vector_5" d="M0.00012207 37.7192H121.477V51.868H0.00012207V37.7192Z" fill="#1A1D21"/>
</g>
</g>
</g>
<path id="Vector_6" d="M30.974 42.2815V44.4821H33.8737V44.9999H30.974V47.3817H30.3785V41.7637H34.2275V42.2815H30.974Z" fill="#DE5D1D"/>
<path id="Vector_7" d="M37.8943 41.4272H38.4639V47.3819H37.8943V41.4272Z" fill="#DE5D1D"/>
<path id="Vector_8" d="M46.2872 45.4489H42.7576C42.7856 45.8869 42.9517 46.2407 43.2581 46.5104C43.5623 46.7822 43.9485 46.916 44.4145 46.916C44.6777 46.916 44.9194 46.8707 45.1394 46.7779C45.3573 46.6873 45.5472 46.5492 45.709 46.3637L46.0283 46.7347C45.8428 46.9591 45.6097 47.1317 45.3293 47.2525C45.0466 47.369 44.736 47.4251 44.3972 47.4251C43.9657 47.4251 43.5817 47.3345 43.2495 47.149C42.9151 46.9591 42.654 46.7045 42.4641 46.3809C42.2786 46.053 42.188 45.6819 42.188 45.2677C42.188 44.8599 42.2764 44.491 42.4555 44.163C42.6324 43.8351 42.8784 43.5827 43.1891 43.4036C43.504 43.2202 43.8579 43.1274 44.2505 43.1274C44.641 43.1274 44.9927 43.2202 45.3034 43.4036C45.6141 43.5827 45.8557 43.8351 46.0283 44.163C46.2052 44.4867 46.2958 44.8534 46.2958 45.2677L46.2872 45.4489ZM44.2505 43.6193C43.8406 43.6193 43.4997 43.7488 43.2236 44.0077C42.9474 44.2666 42.7921 44.6075 42.7576 45.026H45.7521C45.7111 44.6075 45.5537 44.2666 45.2775 44.0077C45.0013 43.7488 44.6583 43.6193 44.2505 43.6193Z" fill="#DE5D1D"/>
<path id="Vector_9" d="M52.707 47.3816L51.3607 45.6125L50.0145 47.3816H49.3759L51.0414 45.2155L49.4535 43.1616H50.0921L51.3607 44.8099L52.6293 43.1616H53.2593L51.6714 45.2155L53.3542 47.3816H52.707Z" fill="#DE5D1D"/>
<path id="Vector_10" d="M58.5309 47.4335C58.1102 47.4335 57.7068 47.3688 57.3228 47.2351C56.943 47.097 56.6496 46.9201 56.4425 46.7L56.6755 46.2426C56.8762 46.4454 57.1437 46.6094 57.4781 46.7345C57.8168 46.8618 58.1685 46.9244 58.5309 46.9244C59.0315 46.9244 59.4047 46.8338 59.6528 46.6482C59.9053 46.4648 60.0325 46.2254 60.0325 45.9319C60.0325 45.7076 59.9635 45.5306 59.8254 45.3969C59.6917 45.2588 59.5255 45.1552 59.3249 45.0862C59.1286 45.0129 58.8546 44.9309 58.5051 44.8446C58.0779 44.741 57.7391 44.6418 57.4867 44.5425C57.2386 44.439 57.025 44.2879 56.8481 44.0851C56.669 43.878 56.5806 43.6019 56.5806 43.2567C56.5806 42.9762 56.6539 42.7195 56.805 42.4886C56.9538 42.2534 57.1804 42.0657 57.4867 41.9277C57.7974 41.7853 58.1814 41.7119 58.6431 41.7119C58.9646 41.7119 59.2774 41.7594 59.5838 41.85C59.8945 41.9363 60.162 42.0571 60.3864 42.2124L60.1879 42.6871C59.9506 42.5318 59.6981 42.4174 59.4285 42.3419C59.1631 42.2621 58.902 42.2211 58.6431 42.2211C58.1534 42.2211 57.7823 42.316 57.5299 42.5059C57.2818 42.6957 57.1588 42.9417 57.1588 43.2394C57.1588 43.4638 57.2278 43.645 57.3659 43.7831C57.504 43.9212 57.6723 44.029 57.8751 44.1024C58.0822 44.1714 58.3605 44.2491 58.7122 44.3354C59.1264 44.4346 59.4587 44.5339 59.7132 44.6375C59.9657 44.7367 60.1793 44.8856 60.3519 45.0862C60.5288 45.2825 60.6194 45.5522 60.6194 45.8974C60.6194 46.18 60.5417 46.4389 60.3864 46.6741C60.2353 46.905 60.0023 47.0883 59.6873 47.2264C59.3702 47.3645 58.984 47.4335 58.5309 47.4335Z" fill="#DE5D1D"/>
<path id="Vector_11" d="M66.5226 43.1274C66.9196 43.1274 67.2778 43.2181 67.6014 43.395C67.9228 43.574 68.1731 43.8265 68.3522 44.1544C68.5356 44.4823 68.6283 44.8534 68.6283 45.2677C68.6283 45.6948 68.5356 46.0702 68.3522 46.3982C68.1731 46.7218 67.9228 46.9742 67.6014 47.1576C67.2842 47.3367 66.9239 47.4251 66.5226 47.4251C66.1818 47.4251 65.8754 47.3539 65.5992 47.2094C65.3231 47.067 65.0944 46.8599 64.9175 46.588V48.9354H64.3479V43.162H64.8916V43.9991C65.0642 43.7186 65.2907 43.5028 65.5733 43.3518C65.8538 43.203 66.171 43.1274 66.5226 43.1274ZM66.4795 46.916C66.7772 46.916 67.0447 46.8512 67.2821 46.7175C67.5237 46.5794 67.7136 46.3852 67.8516 46.1306C67.9897 45.8782 68.0588 45.5913 68.0588 45.2677C68.0588 44.9527 67.9897 44.67 67.8516 44.4219C67.7136 44.1695 67.5237 43.9732 67.2821 43.8351C67.0447 43.697 66.7772 43.628 66.4795 43.628C66.1796 43.628 65.9121 43.697 65.6769 43.8351C65.4396 43.9732 65.254 44.1695 65.116 44.4219C64.9779 44.67 64.9088 44.9527 64.9088 45.2677C64.9088 45.5913 64.9779 45.8782 65.116 46.1306C65.254 46.3852 65.4396 46.5794 65.6769 46.7175C65.9121 46.8512 66.1796 46.916 66.4795 46.916Z" fill="#DE5D1D"/>
<path id="Vector_12" d="M73.8211 43.1274C74.3734 43.1274 74.7963 43.2655 75.0897 43.5417C75.3831 43.8178 75.5298 44.2278 75.5298 44.7671V47.382H74.9862V46.7261C74.8589 46.9462 74.669 47.1188 74.4166 47.2439C74.1685 47.3647 73.8751 47.4251 73.5363 47.4251C73.0638 47.4251 72.6863 47.3129 72.4058 47.0886C72.1297 46.8642 71.9916 46.5665 71.9916 46.1911C71.9916 45.8351 72.121 45.5481 72.3799 45.3281C72.6388 45.1102 73.0531 45.0001 73.6226 45.0001H74.9603V44.7412C74.9603 44.3788 74.8589 44.1026 74.6582 43.9128C74.4554 43.7229 74.1598 43.628 73.7693 43.628C73.4975 43.628 73.2386 43.6711 72.9926 43.7574C72.751 43.8437 72.5396 43.9645 72.3627 44.1199L72.1038 43.697C72.3152 43.5201 72.5719 43.382 72.8718 43.2828C73.176 43.1792 73.4932 43.1274 73.8211 43.1274ZM73.6226 46.9764C73.9441 46.9764 74.2203 46.903 74.4511 46.752C74.6798 46.6031 74.8502 46.3895 74.9603 46.1134V45.423H73.6399C72.915 45.423 72.5525 45.6776 72.5525 46.1824C72.5525 46.4241 72.6431 46.6182 72.8287 46.7606C73.0185 46.9052 73.2817 46.9764 73.6226 46.9764Z" fill="#DE5D1D"/>
<path id="Vector_13" d="M81.3885 47.4251C80.9678 47.4251 80.5945 47.3345 80.2666 47.149C79.9387 46.9656 79.6798 46.7089 79.4899 46.3809C79.3044 46.053 79.2137 45.6819 79.2137 45.2677C79.2137 44.8599 79.3044 44.491 79.4899 44.163C79.6798 43.8351 79.9387 43.5827 80.2666 43.4036C80.5945 43.2202 80.9678 43.1274 81.3885 43.1274C81.7509 43.1274 82.0746 43.2008 82.3637 43.3432C82.6506 43.4813 82.875 43.6884 83.0368 43.9645L82.6139 44.2493C82.4758 44.0422 82.2989 43.8869 82.0875 43.7833C81.8739 43.6798 81.6409 43.628 81.3885 43.628C81.0821 43.628 80.806 43.697 80.56 43.8351C80.3184 43.9689 80.1285 44.1609 79.9904 44.4133C79.8567 44.6679 79.7919 44.9527 79.7919 45.2677C79.7919 45.5956 79.8567 45.8869 79.9904 46.1393C80.1285 46.3874 80.3184 46.5794 80.56 46.7175C80.806 46.8512 81.0821 46.916 81.3885 46.916C81.6409 46.916 81.8739 46.8685 82.0875 46.7693C82.2989 46.6657 82.4758 46.5082 82.6139 46.2946L83.0368 46.588C82.875 46.8599 82.6484 47.067 82.355 47.2094C82.0659 47.3539 81.7445 47.4251 81.3885 47.4251Z" fill="#DE5D1D"/>
<path id="Vector_14" d="M90.387 45.4489H86.8574C86.8855 45.8869 87.0516 46.2407 87.358 46.5104C87.6622 46.7822 88.0483 46.916 88.5144 46.916C88.7776 46.916 89.0192 46.8707 89.2393 46.7779C89.4572 46.6873 89.647 46.5492 89.8088 46.3637L90.1282 46.7347C89.9426 46.9591 89.7096 47.1317 89.4291 47.2525C89.1465 47.369 88.8358 47.4251 88.4971 47.4251C88.0656 47.4251 87.6816 47.3345 87.3493 47.149C87.0149 46.9591 86.7539 46.7045 86.564 46.3809C86.3785 46.053 86.2878 45.6819 86.2878 45.2677C86.2878 44.8599 86.3763 44.491 86.5554 44.163C86.7323 43.8351 86.9782 43.5827 87.2889 43.4036C87.6039 43.2202 87.9577 43.1274 88.3504 43.1274C88.7409 43.1274 89.0926 43.2202 89.4032 43.4036C89.7139 43.5827 89.9556 43.8351 90.1282 44.163C90.3051 44.4867 90.3957 44.8534 90.3957 45.2677L90.387 45.4489ZM88.3504 43.6193C87.9405 43.6193 87.5996 43.7488 87.3234 44.0077C87.0473 44.2666 86.8919 44.6075 86.8574 45.026H89.852C89.811 44.6075 89.6535 44.2666 89.3773 44.0077C89.1012 43.7488 88.7582 43.6193 88.3504 43.6193Z" fill="#DE5D1D"/>
</g>
</svg>
