<svg aria-hidden="true" style="position: absolute; width: 0; height: 0; overflow: hidden;" version="1.1" xmlns="http://www.w3.org/2000/svg" xmlns:xlink="http://www.w3.org/1999/xlink">
<defs>
<symbol id="icon-calendar" viewBox="0 0 32 32">
<path stroke-linejoin="round" stroke-linecap="round" stroke-miterlimit="10" stroke-width="2" d="M10.667 2.667v4"></path>
<path stroke-linejoin="round" stroke-linecap="round" stroke-miterlimit="10" stroke-width="2" d="M21.333 2.667v4"></path>
<path stroke-linejoin="round" stroke-linecap="round" stroke-miterlimit="10" stroke-width="2" d="M4.667 12.12h22.667"></path>
<path stroke-linejoin="round" stroke-linecap="round" stroke-miterlimit="10" stroke-width="2" d="M28 11.333v11.333c0 4-2 6.667-6.667 6.667h-10.667c-4.667 0-6.667-2.667-6.667-6.667v-11.333c0-4 2-6.667 6.667-6.667h10.667c4.667 0 6.667 2.667 6.667 6.667z"></path>
<path stroke-linejoin="round" stroke-linecap="round" stroke-miterlimit="4" stroke-width="2.6667" d="M20.926 18.267h0.012"></path>
<path stroke-linejoin="round" stroke-linecap="round" stroke-miterlimit="4" stroke-width="2.6667" d="M20.926 22.267h0.012"></path>
<path stroke-linejoin="round" stroke-linecap="round" stroke-miterlimit="4" stroke-width="2.6667" d="M15.994 18.267h0.012"></path>
<path stroke-linejoin="round" stroke-linecap="round" stroke-miterlimit="4" stroke-width="2.6667" d="M15.994 22.267h0.012"></path>
<path stroke-linejoin="round" stroke-linecap="round" stroke-miterlimit="4" stroke-width="2.6667" d="M11.059 18.267h0.012"></path>
<path stroke-linejoin="round" stroke-linecap="round" stroke-miterlimit="4" stroke-width="2.6667" d="M11.059 22.267h0.012"></path>
</symbol>
<symbol id="icon-arrow-left" viewBox="0 0 32 32">
<path fill="none" stroke="#f2f2f2" style="stroke: var(--color1, #f2f2f2)" stroke-linejoin="round" stroke-linecap="round" stroke-miterlimit="10" stroke-width="2.6667" d="M20 26.56l-8.693-8.693c-1.027-1.027-1.027-2.707 0-3.733l8.693-8.693"></path>
</symbol>
<symbol id="icon-arrow" viewBox="0 0 32 32">
<path fill="none" stroke="#333333" style="stroke: var(--color1, #333333)" stroke-linejoin="round" stroke-linecap="round" stroke-miterlimit="10" stroke-width="2.6667" d="M20 26.56l-8.693-8.693c-1.027-1.027-1.027-2.707 0-3.733l8.693-8.693"></path>
</symbol>
<symbol id="icon-barbershop" viewBox="0 0 32 32">
<path fill="#de5d1d" style="fill: var(--color2, #de5d1d)" d="M14.091 0h2.726c1.721 0 3.112 1.401 3.112 3.112v0.022h0.044c1.49 0 2.692 1.203 2.692 2.692s-1.203 2.692-2.692 2.692h-3.641l-5.297 2.56v-2.56h-0.066c-1.49 0-2.692-1.203-2.692-2.692s1.203-2.692 2.692-2.692h0.011v-0.022c0-1.721 1.39-3.112 3.112-3.112zM19.983 12.932l-8.949 4.337v2.383l8.949-4.326v-2.394zM19.972 25.534h-3.391l3.402-1.644v-2.383l-8.332 4.028h-0.683c-1.49 0-2.692 1.203-2.692 2.692s1.203 2.692 2.692 2.692h9.004c1.49 0 2.692-1.203 2.692-2.692s-1.203-2.692-2.692-2.692z"></path>
<path fill="#de5d1d" style="fill: var(--color2, #de5d1d)" d="M11.034 12.976l8.949-4.325v2.383l-8.949 4.325v-2.383zM11.034 21.55l8.949-4.326v2.383l-8.949 4.326v-2.383z"></path>
</symbol>
<symbol id="icon-calendar-active" viewBox="0 0 32 32">
<path fill="#de5d1d" style="fill: var(--color2, #de5d1d)" d="M22.080 5.197v-1.997c0-0.525-0.435-0.96-0.96-0.96s-0.96 0.435-0.96 0.96v1.92h-8.32v-1.92c0-0.525-0.435-0.96-0.96-0.96s-0.96 0.435-0.96 0.96v1.997c-3.456 0.32-5.133 2.381-5.389 5.44-0.026 0.371 0.282 0.678 0.64 0.678h21.658c0.371 0 0.678-0.32 0.64-0.678-0.256-3.059-1.933-5.12-5.389-5.44z"></path>
<path fill="#de5d1d" style="fill: var(--color2, #de5d1d)" opacity="0.4" d="M26.24 13.235c0.704 0 1.28 0.576 1.28 1.28v7.885c0 3.84-1.92 6.4-6.4 6.4h-10.24c-4.48 0-6.4-2.56-6.4-6.4v-7.885c0-0.704 0.576-1.28 1.28-1.28h20.48z"></path>
<path fill="#de5d1d" style="fill: var(--color2, #de5d1d)" d="M11.52 19.84c-0.333 0-0.666-0.141-0.909-0.371-0.23-0.243-0.371-0.576-0.371-0.909s0.141-0.666 0.371-0.909c0.358-0.358 0.922-0.474 1.395-0.269 0.166 0.064 0.307 0.154 0.422 0.269 0.23 0.243 0.371 0.576 0.371 0.909s-0.141 0.666-0.371 0.909c-0.243 0.23-0.576 0.371-0.909 0.371z"></path>
<path fill="#de5d1d" style="fill: var(--color2, #de5d1d)" d="M16 19.84c-0.333 0-0.666-0.141-0.909-0.371-0.23-0.243-0.371-0.576-0.371-0.909s0.141-0.666 0.371-0.909c0.115-0.115 0.256-0.205 0.422-0.269 0.474-0.205 1.037-0.090 1.395 0.269 0.23 0.243 0.371 0.576 0.371 0.909s-0.141 0.666-0.371 0.909c-0.064 0.051-0.128 0.102-0.192 0.154-0.077 0.051-0.154 0.090-0.23 0.115-0.077 0.038-0.154 0.064-0.23 0.077-0.090 0.013-0.166 0.026-0.256 0.026z"></path>
<path fill="#de5d1d" style="fill: var(--color2, #de5d1d)" d="M20.48 19.84c-0.333 0-0.666-0.141-0.909-0.371-0.23-0.243-0.371-0.576-0.371-0.909s0.141-0.666 0.371-0.909c0.128-0.115 0.256-0.205 0.422-0.269 0.23-0.102 0.486-0.128 0.742-0.077 0.077 0.013 0.154 0.038 0.23 0.077 0.077 0.026 0.154 0.064 0.23 0.115 0.064 0.051 0.128 0.102 0.192 0.154 0.23 0.243 0.371 0.576 0.371 0.909s-0.141 0.666-0.371 0.909c-0.064 0.051-0.128 0.102-0.192 0.154-0.077 0.051-0.154 0.090-0.23 0.115-0.077 0.038-0.154 0.064-0.23 0.077-0.090 0.013-0.179 0.026-0.256 0.026z"></path>
<path fill="#de5d1d" style="fill: var(--color2, #de5d1d)" d="M11.52 24.32c-0.166 0-0.333-0.038-0.486-0.102-0.166-0.064-0.294-0.154-0.422-0.269-0.23-0.243-0.371-0.576-0.371-0.909s0.141-0.666 0.371-0.909c0.128-0.115 0.256-0.205 0.422-0.269 0.23-0.102 0.486-0.128 0.742-0.077 0.077 0.013 0.154 0.038 0.23 0.077 0.077 0.026 0.154 0.064 0.23 0.115 0.064 0.051 0.128 0.102 0.192 0.154 0.23 0.243 0.371 0.576 0.371 0.909s-0.141 0.666-0.371 0.909c-0.064 0.051-0.128 0.115-0.192 0.154-0.077 0.051-0.154 0.090-0.23 0.115-0.077 0.038-0.154 0.064-0.23 0.077-0.090 0.013-0.166 0.026-0.256 0.026z"></path>
<path fill="#de5d1d" style="fill: var(--color2, #de5d1d)" d="M16 24.32c-0.333 0-0.666-0.141-0.909-0.371-0.23-0.243-0.371-0.576-0.371-0.909s0.141-0.665 0.371-0.909c0.474-0.474 1.344-0.474 1.818 0 0.23 0.243 0.371 0.576 0.371 0.909s-0.141 0.666-0.371 0.909c-0.243 0.23-0.576 0.371-0.909 0.371z"></path>
<path fill="#de5d1d" style="fill: var(--color2, #de5d1d)" d="M20.48 24.32c-0.333 0-0.666-0.141-0.909-0.371-0.23-0.243-0.371-0.576-0.371-0.909s0.141-0.665 0.371-0.909c0.474-0.474 1.344-0.474 1.818 0 0.23 0.243 0.371 0.576 0.371 0.909s-0.141 0.666-0.371 0.909c-0.243 0.23-0.576 0.371-0.909 0.371z"></path>
</symbol>
<symbol id="icon-date" viewBox="0 0 32 32">
<path fill="none" stroke="#de5d1d" style="stroke: var(--color2, #de5d1d)" stroke-linejoin="round" stroke-linecap="round" stroke-miterlimit="10" stroke-width="2.4" d="M10.667 2.667v4"></path>
<path fill="none" stroke="#de5d1d" style="stroke: var(--color2, #de5d1d)" stroke-linejoin="round" stroke-linecap="round" stroke-miterlimit="10" stroke-width="2.4" d="M21.333 2.667v4"></path>
<path fill="none" stroke="#de5d1d" style="stroke: var(--color2, #de5d1d)" stroke-linejoin="round" stroke-linecap="round" stroke-miterlimit="10" stroke-width="2.4" d="M4.667 12.12h22.667"></path>
<path fill="none" stroke="#de5d1d" style="stroke: var(--color2, #de5d1d)" stroke-linejoin="round" stroke-linecap="round" stroke-miterlimit="10" stroke-width="2.4" d="M4 17.347v-6.013c0-4 2-6.667 6.667-6.667h10.667c4.667 0 6.667 2.667 6.667 6.667v11.333c0 4-2 6.667-6.667 6.667h-10.667c-4.667 0-6.667-2.667-6.667-6.667"></path>
<path fill="none" stroke="#de5d1d" style="stroke: var(--color2, #de5d1d)" stroke-linejoin="round" stroke-linecap="round" stroke-miterlimit="4" stroke-width="3.2" d="M20.926 18.267h0.012"></path>
<path fill="none" stroke="#de5d1d" style="stroke: var(--color2, #de5d1d)" stroke-linejoin="round" stroke-linecap="round" stroke-miterlimit="4" stroke-width="3.2" d="M20.926 22.267h0.012"></path>
<path fill="none" stroke="#de5d1d" style="stroke: var(--color2, #de5d1d)" stroke-linejoin="round" stroke-linecap="round" stroke-miterlimit="4" stroke-width="3.2" d="M15.994 18.267h0.012"></path>
<path fill="none" stroke="#de5d1d" style="stroke: var(--color2, #de5d1d)" stroke-linejoin="round" stroke-linecap="round" stroke-miterlimit="4" stroke-width="3.2" d="M15.994 22.267h0.012"></path>
<path fill="none" stroke="#de5d1d" style="stroke: var(--color2, #de5d1d)" stroke-linejoin="round" stroke-linecap="round" stroke-miterlimit="4" stroke-width="3.2" d="M11.059 18.267h0.012"></path>
<path fill="none" stroke="#de5d1d" style="stroke: var(--color2, #de5d1d)" stroke-linejoin="round" stroke-linecap="round" stroke-miterlimit="4" stroke-width="3.2" d="M11.059 22.267h0.012"></path>
</symbol>
<symbol id="icon-filters" viewBox="0 0 32 32">
<path fill="#de5d1d" style="fill: var(--color2, #de5d1d)" d="M13.44 24.79h-8.401c-0.552 0-1-0.448-1-1s0.448-1 1-1h8.401c0.552 0 1 0.448 1 1s-0.448 1-1 1z"></path>
<path fill="#de5d1d" style="fill: var(--color2, #de5d1d)" d="M25.588 11.867h-8.4c-0.552 0-1-0.448-1-1s0.448-1 1-1h8.4c0.552 0 1 0.448 1 1s-0.448 1-1 1z"></path>
<path fill="#de5d1d" style="fill: var(--color2, #de5d1d)" d="M8.15 8.667c-1.185 0-2.151 0.955-2.151 2.129 0 1.173 0.965 2.127 2.151 2.127 1.187 0 2.151-0.953 2.151-2.127 0-1.175-0.964-2.129-2.151-2.129zM8.15 14.923c-2.288 0-4.151-1.851-4.151-4.127s1.863-4.129 4.151-4.129c2.289 0 4.151 1.853 4.151 4.129s-1.861 4.127-4.151 4.127z"></path>
<path fill="#de5d1d" style="fill: var(--color2, #de5d1d)" d="M23.184 21.611c-1.187 0-2.152 0.955-2.152 2.128 0 1.175 0.965 2.128 2.152 2.128 1.185 0 2.149-0.953 2.149-2.128 0-1.173-0.964-2.128-2.149-2.128zM23.184 27.867c-2.289 0-4.152-1.852-4.152-4.128s1.863-4.128 4.152-4.128c2.288 0 4.149 1.852 4.149 4.128s-1.861 4.128-4.149 4.128z"></path>
</symbol>
<symbol id="icon-heart" viewBox="0 0 32 32">
<path stroke-linejoin="round" stroke-linecap="round" stroke-miterlimit="4" stroke-width="1.92" d="M17.114 27.277c-0.435 0.154-1.152 0.154-1.587 0-3.712-1.267-12.006-6.554-12.006-15.514 0-3.955 3.187-7.155 7.117-7.155 2.33 0 4.39 1.126 5.683 2.867 1.293-1.741 3.366-2.867 5.683-2.867 3.93 0 7.117 3.2 7.117 7.155 0 8.96-8.294 14.246-12.006 15.514z"></path>
</symbol>
<symbol id="icon-heart-favorite" viewBox="0 0 32 32">
<path fill="none" stroke="#fcefe2" style="stroke: var(--color3, #fcefe2)" stroke-linejoin="round" stroke-linecap="round" stroke-miterlimit="4" stroke-width="2.6667" d="M16.827 27.747c-0.453 0.16-1.2 0.16-1.653 0-3.867-1.32-12.507-6.827-12.507-16.16 0-4.12 3.32-7.453 7.413-7.453 2.427 0 4.573 1.173 5.92 2.987 1.347-1.813 3.507-2.987 5.92-2.987 4.093 0 7.413 3.333 7.413 7.453 0 9.333-8.64 14.84-12.507 16.16z"></path>
</symbol>
<symbol id="icon-location" viewBox="0 0 32 32">
<path fill="none" stroke="#de5d1d" style="stroke: var(--color2, #de5d1d)" stroke-linejoin="round" stroke-linecap="round" stroke-miterlimit="4" stroke-width="3.4286" d="M20.16 13.747c0 2.293-1.853 4.16-4.16 4.16s-4.16-1.853-4.16-4.16c0-2.307 1.867-4.16 4.16-4.16 0.453 0 0.893 0.067 1.293 0.2"></path>
<path fill="none" stroke="#de5d1d" style="stroke: var(--color2, #de5d1d)" stroke-linejoin="round" stroke-linecap="round" stroke-miterlimit="4" stroke-width="3.4286" d="M7.973 5.733c5.827-5.48 17.12-3.6 19.2 5.613 1.534 6.773-2.68 12.507-6.373 16.053-2.68 2.587-6.92 2.587-9.613 0-3.68-3.56-7.907-9.293-6.36-16.067"></path>
</symbol>
<symbol id="icon-makeupstudio" viewBox="0 0 32 32">
<path fill="#de5d1d" style="fill: var(--color2, #de5d1d)" d="M1.371 22.058h29.257v3.657h-29.257v-3.657z"></path>
<path fill="none" stroke="#de5d1d" style="stroke: var(--color2, #de5d1d)" stroke-linejoin="round" stroke-linecap="round" stroke-miterlimit="10" stroke-width="1.7143" d="M29.139 7.43h-26.244c-0.842 0-1.524 0.682-1.524 1.524v15.695c0 0.842 0.682 1.524 1.524 1.524h26.244c0.842 0 1.524-0.682 1.524-1.524v-15.695c0-0.842-0.682-1.524-1.524-1.524z"></path>
<path fill="none" stroke="#de5d1d" style="stroke: var(--color2, #de5d1d)" stroke-linejoin="round" stroke-linecap="round" stroke-miterlimit="10" stroke-width="1.7143" d="M1.371 21.988h29.291"></path>
<path fill="none" stroke="#de5d1d" style="stroke: var(--color2, #de5d1d)" stroke-linejoin="round" stroke-linecap="round" stroke-miterlimit="10" stroke-width="1.7143" d="M12.792 13.531c-0.61 1.395-1.918 2.354-3.574 2.354s-2.964-0.959-3.574-2.354"></path>
<path fill="none" stroke="#de5d1d" style="stroke: var(--color2, #de5d1d)" stroke-linejoin="round" stroke-linecap="round" stroke-miterlimit="10" stroke-width="1.7143" d="M9.217 15.973v1.308"></path>
<path fill="none" stroke="#de5d1d" style="stroke: var(--color2, #de5d1d)" stroke-linejoin="round" stroke-linecap="round" stroke-miterlimit="10" stroke-width="1.7143" d="M10.667 7.429v1.308"></path>
<path fill="none" stroke="#de5d1d" style="stroke: var(--color2, #de5d1d)" stroke-linejoin="round" stroke-linecap="round" stroke-miterlimit="10" stroke-width="1.7143" d="M21.333 7.429v1.308"></path>
<path fill="none" stroke="#de5d1d" style="stroke: var(--color2, #de5d1d)" stroke-linejoin="round" stroke-linecap="round" stroke-miterlimit="10" stroke-width="1.7143" d="M10.667 5.905v1.308"></path>
<path fill="none" stroke="#de5d1d" style="stroke: var(--color2, #de5d1d)" stroke-linejoin="round" stroke-linecap="round" stroke-miterlimit="10" stroke-width="1.7143" d="M21.333 5.905v1.308"></path>
<path fill="none" stroke="#de5d1d" style="stroke: var(--color2, #de5d1d)" stroke-linejoin="round" stroke-linecap="round" stroke-miterlimit="10" stroke-width="1.7143" d="M10.612 15.711l0.697 1.395"></path>
<path fill="none" stroke="#de5d1d" style="stroke: var(--color2, #de5d1d)" stroke-linejoin="round" stroke-linecap="round" stroke-miterlimit="10" stroke-width="1.7143" d="M7.822 15.711l-0.697 1.395"></path>
<path fill="none" stroke="#de5d1d" style="stroke: var(--color2, #de5d1d)" stroke-linejoin="round" stroke-linecap="round" stroke-miterlimit="10" stroke-width="1.7143" d="M12.268 14.579l0.697 1.395"></path>
<path fill="none" stroke="#de5d1d" style="stroke: var(--color2, #de5d1d)" stroke-linejoin="round" stroke-linecap="round" stroke-miterlimit="10" stroke-width="1.7143" d="M6.166 14.579l-0.697 1.395"></path>
<path fill="none" stroke="#de5d1d" style="stroke: var(--color2, #de5d1d)" stroke-linejoin="round" stroke-linecap="round" stroke-miterlimit="10" stroke-width="1.7143" d="M26.391 13.532c-0.61 1.395-1.918 2.354-3.574 2.354s-2.964-0.959-3.574-2.354"></path>
<path fill="none" stroke="#de5d1d" style="stroke: var(--color2, #de5d1d)" stroke-linejoin="round" stroke-linecap="round" stroke-miterlimit="10" stroke-width="1.7143" d="M22.817 15.973v1.308"></path>
<path fill="none" stroke="#de5d1d" style="stroke: var(--color2, #de5d1d)" stroke-linejoin="round" stroke-linecap="round" stroke-miterlimit="10" stroke-width="1.7143" d="M24.212 15.712l0.697 1.395"></path>
<path fill="none" stroke="#de5d1d" style="stroke: var(--color2, #de5d1d)" stroke-linejoin="round" stroke-linecap="round" stroke-miterlimit="10" stroke-width="1.7143" d="M21.422 15.712l-0.61 1.395"></path>
<path fill="none" stroke="#de5d1d" style="stroke: var(--color2, #de5d1d)" stroke-linejoin="round" stroke-linecap="round" stroke-miterlimit="10" stroke-width="1.7143" d="M25.955 14.578l0.61 1.395"></path>
<path fill="none" stroke="#de5d1d" style="stroke: var(--color2, #de5d1d)" stroke-linejoin="round" stroke-linecap="round" stroke-miterlimit="10" stroke-width="1.7143" d="M19.766 14.578l-0.697 1.395"></path>
</symbol>
<symbol id="icon-messages" viewBox="0 0 32 32">
<path stroke-linejoin="round" stroke-linecap="round" stroke-miterlimit="10" stroke-width="1.92" d="M23.334 14.451v5.12c0 0.333-0.013 0.653-0.051 0.96-0.294 3.456-2.33 5.171-6.080 5.171h-0.512c-0.32 0-0.627 0.154-0.819 0.41l-1.536 2.048c-0.678 0.909-1.779 0.909-2.458 0l-1.536-2.048c-0.166-0.218-0.538-0.41-0.819-0.41h-0.512c-4.083 0-6.131-1.011-6.131-6.131v-5.12c0-3.75 1.728-5.786 5.171-6.080 0.307-0.038 0.627-0.051 0.96-0.051h8.192c4.083 0 6.131 2.048 6.131 6.131z"></path>
<path stroke-linejoin="round" stroke-linecap="round" stroke-miterlimit="10" stroke-width="1.92" d="M28.454 9.331v5.12c0 3.763-1.728 5.786-5.171 6.080 0.038-0.307 0.051-0.627 0.051-0.96v-5.12c0-4.083-2.048-6.131-6.131-6.131h-8.192c-0.333 0-0.653 0.013-0.96 0.051 0.294-3.443 2.33-5.171 6.080-5.171h8.192c4.083 0 6.131 2.048 6.131 6.131z"></path>
<path stroke-linejoin="round" stroke-linecap="round" stroke-miterlimit="4" stroke-width="2.56" d="M17.594 17.6h0.012"></path>
<path stroke-linejoin="round" stroke-linecap="round" stroke-miterlimit="4" stroke-width="2.56" d="M13.114 17.6h0.012"></path>
<path stroke-linejoin="round" stroke-linecap="round" stroke-miterlimit="4" stroke-width="2.56" d="M8.634 17.6h0.012"></path>
</symbol>
<symbol id="icon-nailsalon" viewBox="0 0 32 32">
<path fill="#de5d1d" style="fill: var(--color2, #de5d1d)" d="M5.537 30.27h-5.068c-0.259 0-0.469-0.21-0.469-0.469s0.21-0.469 0.469-0.469h5.068c3.078 0 5.41-0.364 7.13-1.112 1.449-0.63 2.503-1.532 3.268-2.806h-5.578c-1.794 0-3.193-1.524-3.378-3.605h-6.51c-0.259 0-0.469-0.21-0.469-0.469s0.21-0.469 0.469-0.469h6.959c2.275 0 4.267-0.801 5.762-2.317l3.46-3.517-2.041-2.055c-0.109-0.11-0.157-0.267-0.128-0.419s0.132-0.28 0.274-0.342c0.438-0.19 0.853-0.368 1.248-0.537 1.81-0.776 3.24-1.39 4.558-2.134 0.226-0.127 0.512-0.048 0.639 0.178s0.048 0.512-0.178 0.639c-1.363 0.769-2.813 1.391-4.649 2.179-0.199 0.085-0.404 0.173-0.614 0.264l5.136 5.171c2.197-5.049 3.397-7.415 7.392-11.41l2.541-2.541c0.161-0.161 0.246-0.383 0.234-0.61-0.012-0.23-0.12-0.438-0.302-0.584-0.312-0.251-0.791-0.213-1.091 0.087l-2.541 2.541c-1.733 1.732-3.105 2.924-4.449 3.862-0.212 0.148-0.505 0.096-0.653-0.116s-0.096-0.505 0.116-0.653c1.298-0.906 2.631-2.065 4.323-3.757l2.541-2.541c0.644-0.644 1.651-0.71 2.342-0.154 0.387 0.311 0.624 0.772 0.65 1.264s-0.158 0.975-0.507 1.324l-2.541 2.541c-4.037 4.037-5.142 6.379-7.47 11.754-0.062 0.143-0.19 0.246-0.343 0.274s-0.31-0.020-0.42-0.13l-2.085-2.099c-0.552 0.559-1.889 1.912-3.468 3.491-0.12 0.12-0.236 0.236-0.348 0.348h3.705c0.59 0 1.070 0.479 1.070 1.068 0 0.869-0.231 1.687-0.65 2.303-0.465 0.683-1.127 1.079-1.925 1.157-1.76 3.41-5.216 4.87-11.478 4.87zM7.922 21.797c0.155 1.363 1.003 2.68 2.435 2.68h6.351c0.006-0 0.013-0 0.019 0 0.612-0.003 1.096-0.259 1.438-0.762 0.31-0.455 0.488-1.102 0.487-1.775 0-0.072-0.059-0.131-0.132-0.131h-4.643c-1.177 1.176-1.727 1.723-1.735 1.73-0.184 0.183-0.481 0.182-0.663-0.002s-0.182-0.481 0.002-0.663c0.009-0.009 0.851-0.846 2.688-2.682l-0.652-0.652c-1.502 1.363-3.458 2.152-5.594 2.258zM14.184 18.881l0.648 0.648c1.437-1.439 2.631-2.646 3.139-3.161l-0.661-0.665-3.126 3.178z"></path>
<path fill="#de5d1d" style="fill: var(--color2, #de5d1d); stroke: var(--color2, #de5d1d)" stroke="#de5d1d" stroke-linejoin="round" stroke-linecap="round" stroke-miterlimit="10" stroke-width="0.6653" d="M18.667 22.667c0.039 0.753-1.333 2-2.519 1.555l-4.251 0.218-2.563-0.44-0.667-0.667-0.667-1.333 3.755-0.323 4.251-0.218c0.743-0.038 2.782 0.218 2.661 1.208z"></path>
</symbol>
<symbol id="icon-profile-circle" viewBox="0 0 32 32">
<path stroke-linejoin="round" stroke-linecap="round" stroke-miterlimit="4" stroke-width="2" d="M16.16 17.040c-0.093-0.013-0.213-0.013-0.32 0-2.347-0.080-4.213-2-4.213-4.36 0-2.413 1.947-4.373 4.373-4.373 2.413 0 4.373 1.96 4.373 4.373-0.013 2.36-1.867 4.28-4.213 4.36z"></path>
<path stroke-linejoin="round" stroke-linecap="round" stroke-miterlimit="4" stroke-width="2" d="M24.987 25.84c-2.373 2.173-5.52 3.493-8.987 3.493s-6.613-1.32-8.987-3.493c0.133-1.253 0.933-2.48 2.36-3.44 3.653-2.427 9.627-2.427 13.253 0 1.427 0.96 2.227 2.187 2.36 3.44z"></path>
<path stroke-linejoin="round" stroke-linecap="round" stroke-miterlimit="4" stroke-width="2" d="M16 29.333c7.364 0 13.333-5.97 13.333-13.333s-5.97-13.333-13.333-13.333c-7.364 0-13.333 5.97-13.333 13.333s5.97 13.333 13.333 13.333z"></path>
</symbol>
<symbol id="icon-salon" viewBox="0 0 32 32">
<path fill="none" stroke="#de5d1d" style="stroke: var(--color2, #de5d1d)" stroke-linejoin="round" stroke-linecap="round" stroke-miterlimit="10" stroke-width="1.8462" d="M10.331 30.77c2.307 0 4.177-2.204 4.177-4.923s-1.87-4.923-4.177-4.923-4.177 2.204-4.177 4.923c0 2.719 1.87 4.923 4.177 4.923z"></path>
<path fill="none" stroke="#de5d1d" style="stroke: var(--color2, #de5d1d)" stroke-linejoin="round" stroke-linecap="round" stroke-miterlimit="10" stroke-width="1.8462" d="M21.669 30.77c2.307 0 4.177-2.204 4.177-4.923s-1.87-4.923-4.177-4.923c-2.307 0-4.177 2.204-4.177 4.923s1.87 4.923 4.177 4.923z"></path>
<path fill="none" stroke="#de5d1d" style="stroke: var(--color2, #de5d1d)" stroke-linejoin="round" stroke-linecap="round" stroke-miterlimit="10" stroke-width="1.8462" d="M11.425 21.024l4.575-4.521"></path>
<path fill="none" stroke="#de5d1d" style="stroke: var(--color2, #de5d1d)" stroke-linejoin="round" stroke-linecap="round" stroke-miterlimit="10" stroke-width="1.8462" d="M20.575 21.024l-4.575-4.521"></path>
<path fill="none" stroke="#de5d1d" style="stroke: var(--color2, #de5d1d)" stroke-linejoin="round" stroke-linecap="round" stroke-miterlimit="10" stroke-width="1.8462" d="M20.575 8.266l-4.575 4.622"></path>
<path fill="none" stroke="#de5d1d" style="stroke: var(--color2, #de5d1d)" stroke-linejoin="round" stroke-linecap="round" stroke-miterlimit="10" stroke-width="1.8462" d="M11.425 8.266l4.575 4.622"></path>
<path fill="#de5d1d" style="fill: var(--color2, #de5d1d); stroke: var(--color2, #de5d1d)" stroke="#de5d1d" stroke-linejoin="round" stroke-linecap="round" stroke-miterlimit="10" stroke-width="1.8462" d="M16 16.504c0.989 0 1.79-0.81 1.79-1.809s-0.802-1.809-1.79-1.809c-0.989 0-1.79 0.81-1.79 1.809s0.802 1.809 1.79 1.809z"></path>
<path fill="#de5d1d" style="fill: var(--color2, #de5d1d); stroke: var(--color2, #de5d1d)" stroke="#de5d1d" stroke-linejoin="round" stroke-linecap="round" stroke-miterlimit="10" stroke-width="1.8462" d="M22.763 8.064c-4.575-1.507-9.15-1.507-13.725 0v-5.124c4.575-1.206 9.15-1.206 13.725 0v5.124z"></path>
<path fill="none" stroke="#de5d1d" style="stroke: var(--color2, #de5d1d)" stroke-linejoin="round" stroke-linecap="round" stroke-miterlimit="10" stroke-width="1.8462" d="M9.108 2.94v-1.708"></path>
<path fill="none" stroke="#de5d1d" style="stroke: var(--color2, #de5d1d)" stroke-linejoin="round" stroke-linecap="round" stroke-miterlimit="10" stroke-width="1.8462" d="M22.763 2.94v-1.708"></path>
<path fill="none" stroke="#de5d1d" style="stroke: var(--color2, #de5d1d)" stroke-linejoin="round" stroke-linecap="round" stroke-miterlimit="10" stroke-width="1.8462" d="M9.137 6.156c0 0 0.895-0.904 2.486-1.105"></path>
<path fill="none" stroke="#de5d1d" style="stroke: var(--color2, #de5d1d)" stroke-linejoin="round" stroke-linecap="round" stroke-miterlimit="10" stroke-width="1.8462" d="M22.763 6.356c0 0-1.193-0.904-1.89-1.105"></path>
<path fill="#de5d1d" style="fill: var(--color2, #de5d1d)" d="M18.884 5.15c0.33 0 0.597-0.27 0.597-0.603s-0.267-0.603-0.597-0.603c-0.33 0-0.597 0.27-0.597 0.603s0.267 0.603 0.597 0.603z"></path>
</symbol>
<symbol id="icon-search-active" viewBox="0 0 32 32">
<path fill="#de5d1d" style="fill: var(--color2, #de5d1d)" opacity="0.4" d="M15.333 28c6.996 0 12.667-5.671 12.667-12.667s-5.671-12.667-12.667-12.667c-6.996 0-12.667 5.671-12.667 12.667s5.671 12.667 12.667 12.667z"></path>
<path fill="#de5d1d" style="fill: var(--color2, #de5d1d)" d="M28.4 29.333c-0.24 0-0.48-0.093-0.653-0.267l-2.48-2.48c-0.36-0.36-0.36-0.947 0-1.32 0.36-0.36 0.947-0.36 1.32 0l2.48 2.48c0.36 0.36 0.36 0.947 0 1.32-0.187 0.173-0.427 0.267-0.667 0.267z"></path>
</symbol>
<symbol id="icon-search-input" viewBox="0 0 32 32">
<path fill="none" stroke="#de5d1d" style="stroke: var(--color2, #de5d1d)" stroke-linejoin="round" stroke-linecap="round" stroke-miterlimit="4" stroke-width="2.4" d="M15.333 2.667c7 0 12.667 5.667 12.667 12.667s-5.667 12.667-12.667 12.667c-7 0-12.667-5.667-12.667-12.667 0-4.933 2.813-9.2 6.933-11.293"></path>
<path fill="none" stroke="#de5d1d" style="stroke: var(--color2, #de5d1d)" stroke-linejoin="round" stroke-linecap="round" stroke-miterlimit="4" stroke-width="2.4" d="M29.333 29.333l-2.667-2.667"></path>
</symbol>
<symbol id="icon-search-normal" viewBox="0 0 32 32">
<path stroke-linejoin="round" stroke-linecap="round" stroke-miterlimit="4" stroke-width="2" d="M15.333 28c6.996 0 12.667-5.671 12.667-12.667s-5.671-12.667-12.667-12.667c-6.996 0-12.667 5.671-12.667 12.667s5.671 12.667 12.667 12.667z"></path>
<path stroke-linejoin="round" stroke-linecap="round" stroke-miterlimit="4" stroke-width="2" d="M29.333 29.333l-2.667-2.667"></path>
</symbol>
<symbol id="icon-share" viewBox="0 0 32 32">
<path fill="#1c222b" style="fill: var(--color4, #1c222b)" opacity="0.7" d="M0 16c0-8.837 7.163-16 16-16s16 7.163 16 16c0 8.837-7.163 16-16 16s-16-7.163-16-16z"></path>
<path fill="#fcefe2" style="fill: var(--color3, #fcefe2)" d="M11.429 15.429c0.316 0 0.571 0.256 0.571 0.571v4.571c0 0.152 0.060 0.297 0.167 0.404s0.252 0.167 0.404 0.167h6.857c0.152 0 0.297-0.060 0.404-0.167s0.167-0.253 0.167-0.404v-4.571c0-0.316 0.256-0.571 0.571-0.571s0.571 0.256 0.571 0.571v4.571c0 0.455-0.181 0.891-0.502 1.212s-0.758 0.502-1.212 0.502h-6.857c-0.455 0-0.891-0.181-1.212-0.502s-0.502-0.758-0.502-1.212v-4.571c0-0.316 0.256-0.571 0.571-0.571z"></path>
<path fill="#fcefe2" style="fill: var(--color3, #fcefe2)" d="M12.167 20.975v0zM19.833 20.975v0zM20.641 21.784v0zM11.359 21.784v0zM13.143 16c0-0.947-0.768-1.714-1.714-1.714v2.286c-0.316 0-0.571-0.256-0.571-0.571h2.286zM13.143 20.571v-4.571h-2.286v4.571h2.286zM12.975 20.167c0.107 0.107 0.167 0.253 0.167 0.404h-2.286c0 0.455 0.181 0.891 0.502 1.212l1.616-1.616zM12.571 20c0.152 0 0.297 0.060 0.404 0.167l-1.616 1.616c0.322 0.321 0.758 0.502 1.212 0.502v-2.286zM19.429 20h-6.857v2.286h6.857v-2.286zM19.025 20.167c0.107-0.107 0.253-0.167 0.404-0.167v2.286c0.455 0 0.891-0.181 1.212-0.502l-1.616-1.616zM18.857 20.571c0-0.152 0.060-0.297 0.167-0.404l1.616 1.616c0.321-0.322 0.502-0.758 0.502-1.212h-2.286zM18.857 16v4.571h2.286v-4.571h-2.286zM20.571 14.286c-0.947 0-1.714 0.768-1.714 1.714h2.286c0 0.316-0.256 0.571-0.571 0.571v-2.286zM22.286 16c0-0.947-0.768-1.714-1.714-1.714v2.286c-0.316 0-0.571-0.256-0.571-0.571h2.286zM22.286 20.571v-4.571h-2.286v4.571h2.286zM21.449 22.592c0.536-0.536 0.837-1.263 0.837-2.020h-2.286c0 0.152-0.060 0.297-0.167 0.404l1.616 1.616zM19.429 23.429c0.758 0 1.485-0.301 2.020-0.837l-1.616-1.616c-0.107 0.107-0.253 0.167-0.404 0.167v2.286zM12.571 23.429h6.857v-2.286h-6.857v2.286zM10.551 22.592c0.536 0.536 1.263 0.837 2.020 0.837v-2.286c-0.152 0-0.297-0.060-0.404-0.167l-1.616 1.616zM9.714 20.571c0 0.758 0.301 1.485 0.837 2.020l1.616-1.616c-0.107-0.107-0.167-0.253-0.167-0.404h-2.286zM9.714 16v4.571h2.286v-4.571h-2.286zM11.429 14.286c-0.947 0-1.714 0.768-1.714 1.714h2.286c0 0.316-0.256 0.571-0.571 0.571v-2.286z"></path>
<path fill="#fcefe2" style="fill: var(--color3, #fcefe2)" d="M15.596 9.882c0.223-0.223 0.585-0.223 0.808 0l2.286 2.286c0.223 0.223 0.223 0.585 0 0.808s-0.585 0.223-0.808 0l-1.882-1.882-1.882 1.882c-0.223 0.223-0.585 0.223-0.808 0s-0.223-0.585 0-0.808l2.286-2.286z"></path>
<path fill="#fcefe2" style="fill: var(--color3, #fcefe2)" d="M16 9.714c0.316 0 0.571 0.256 0.571 0.571v7.429c0 0.316-0.256 0.571-0.571 0.571s-0.571-0.256-0.571-0.571v-7.429c0-0.316 0.256-0.571 0.571-0.571z"></path>
</symbol>
</defs>
</svg>
