<svg aria-hidden="true" style="position: absolute; width: 0; height: 0; overflow: hidden;" version="1.1" xmlns="http://www.w3.org/2000/svg" xmlns:xlink="http://www.w3.org/1999/xlink">
<defs>
<symbol id="icon-arrow-down" viewBox="0 0 32 32">
<path fill="none" stroke="#eb7101" style="stroke: var(--color1, #eb7101)" stroke-linejoin="round" stroke-linecap="round" stroke-miterlimit="10" stroke-width="2" d="M26.56 11.934l-8.693 8.693c-1.027 1.027-2.707 1.027-3.733 0l-8.693-8.693"></path>
</symbol>
<symbol id="icon-arrow-up" viewBox="0 0 32 32">
<path fill="none" stroke="#eb7101" style="stroke: var(--color1, #eb7101)" stroke-linejoin="round" stroke-linecap="round" stroke-miterlimit="10" stroke-width="2" d="M5.44 20.067l8.693-8.693c1.027-1.027 2.707-1.027 3.733 0l8.693 8.693"></path>
</symbol>
<symbol id="icon-building" viewBox="0 0 32 32">
<path fill="#fc8e28" style="fill: var(--color2, #fc8e28); stroke: var(--color1, #eb7101)" stroke="#eb7101" stroke-linejoin="miter" stroke-linecap="butt" stroke-miterlimit="4" stroke-width="1.3333" d="M6.787 4.667h8.307c1.221 0 2.014 0.309 2.507 0.81 0.495 0.502 0.8 1.311 0.8 2.55v20.64h-5.733v-4.333c0-0.934-0.758-1.667-1.667-1.667-0.915 0-1.667 0.752-1.667 1.667v4.333h-5.867v-20.64c0-1.238 0.308-2.047 0.805-2.549 0.497-0.502 1.293-0.811 2.515-0.811zM7.733 17.667h6.6c0.915 0 1.667-0.752 1.667-1.667s-0.752-1.667-1.667-1.667h-6.6c-0.915 0-1.667 0.752-1.667 1.667s0.752 1.667 1.667 1.667zM7.733 12.667h6.6c0.915 0 1.667-0.752 1.667-1.667s-0.752-1.667-1.667-1.667h-6.6c-0.915 0-1.667 0.752-1.667 1.667s0.752 1.667 1.667 1.667z"></path>
<path fill="#fc8e28" style="fill: var(--color2, #fc8e28); stroke: var(--color1, #eb7101)" stroke="#eb7101" stroke-linejoin="miter" stroke-linecap="butt" stroke-miterlimit="4" stroke-width="1.3333" d="M26.973 28.333v0.667h3.693c0.179 0 0.333 0.155 0.333 0.333s-0.155 0.333-0.333 0.333h-3.96c-0.023 0-0.046 0.001-0.067 0.003-0.021-0.002-0.043-0.003-0.067-0.003h-25.24c-0.178 0-0.333-0.155-0.333-0.333s0.155-0.333 0.333-0.333h24.96v-5.156l-0.45-0.155c-0.985-0.339-1.697-1.269-1.697-2.356v-2.667c0-1.378 1.128-2.507 2.507-2.507s2.507 1.128 2.507 2.507v2.667c0 1.1-0.723 2.039-1.727 2.366l-0.46 0.15v4.484z"></path>
</symbol>
<symbol id="icon-calendar" viewBox="0 0 32 32">
<path fill="#fc8e28" style="fill: var(--color2, #fc8e28); stroke: var(--color1, #eb7101)" stroke="#eb7101" stroke-linejoin="miter" stroke-linecap="butt" stroke-miterlimit="4" stroke-width="1" d="M21.833 4.747v0.456l0.454 0.042c1.707 0.158 2.92 0.739 3.739 1.608 0.822 0.873 1.296 2.088 1.422 3.602h-0l0.001 0.012c0.003 0.025-0.005 0.060-0.039 0.096s-0.082 0.057-0.131 0.057h-22.56c-0.043 0-0.088-0.019-0.123-0.055-0.033-0.034-0.047-0.074-0.045-0.115 0.127-1.512 0.601-2.725 1.422-3.597 0.819-0.869 2.032-1.45 3.739-1.608l0.454-0.042v-2.536c0-0.271 0.229-0.5 0.5-0.5s0.5 0.229 0.5 0.5v2.5h9.667v-2.5c0-0.271 0.23-0.5 0.5-0.5s0.5 0.229 0.5 0.5v2.080z"></path>
<path fill="#fc8e28" style="fill: var(--color2, #fc8e28); stroke: var(--color1, #eb7101)" stroke="#eb7101" stroke-linejoin="miter" stroke-linecap="butt" stroke-miterlimit="4" stroke-width="1" d="M12.592 24.67l0.027-0.021 0.024-0.025c0.322-0.34 0.524-0.808 0.524-1.291s-0.202-0.951-0.524-1.291l-0.024-0.025-0.244-0.195-0.018-0.012c-0.102-0.068-0.21-0.125-0.325-0.166-0.108-0.051-0.222-0.089-0.341-0.109-0.356-0.070-0.721-0.036-1.055 0.11-0.24 0.094-0.422 0.225-0.583 0.37l-0.015 0.013-0.014 0.015c-0.322 0.34-0.524 0.808-0.524 1.291s0.202 0.951 0.524 1.291l0.014 0.014 0.015 0.013c0.163 0.146 0.345 0.278 0.588 0.373 0.21 0.086 0.446 0.142 0.693 0.142 0.122 0 0.231-0.016 0.309-0.028 0.010-0.002 0.020-0.003 0.028-0.004v0l0.011-0.002c0.122-0.020 0.239-0.058 0.35-0.111 0.112-0.041 0.217-0.095 0.317-0.161 0.065-0.041 0.12-0.086 0.155-0.116 0.021-0.018 0.035-0.030 0.047-0.040 0.016-0.014 0.027-0.023 0.042-0.035zM12.624 19.976l0.010-0.009 0.009-0.010c0.322-0.34 0.524-0.808 0.524-1.291s-0.202-0.951-0.524-1.291l0-0-0.009-0.010c-0.172-0.172-0.376-0.3-0.605-0.389-0.683-0.291-1.483-0.124-1.996 0.389l-0-0-0.009 0.010c-0.322 0.34-0.524 0.808-0.524 1.291s0.202 0.951 0.524 1.291l0.009 0.010 0.010 0.009c0.34 0.322 0.807 0.524 1.29 0.524s0.951-0.202 1.291-0.524zM17.291 24.643l0.010-0.009 0.009-0.010c0.322-0.34 0.524-0.808 0.524-1.291s-0.202-0.951-0.524-1.291l0-0-0.010-0.010c-0.355-0.355-0.839-0.516-1.3-0.516s-0.945 0.162-1.3 0.516l-0-0-0.009 0.010c-0.322 0.34-0.524 0.808-0.524 1.291s0.202 0.951 0.524 1.291l0.009 0.010 0.010 0.009c0.34 0.322 0.807 0.524 1.291 0.524s0.951-0.202 1.291-0.524zM17.259 20.004l0.027-0.022 0.024-0.025c0.322-0.34 0.524-0.808 0.524-1.291s-0.202-0.951-0.524-1.291l0-0-0.010-0.010c-0.513-0.513-1.313-0.68-1.996-0.389-0.229 0.089-0.433 0.218-0.605 0.389l-0-0-0.009 0.010c-0.322 0.34-0.524 0.808-0.524 1.291s0.202 0.951 0.524 1.291l0.009 0.010 0.010 0.009c0.34 0.322 0.807 0.524 1.291 0.524 0.122 0 0.231-0.016 0.309-0.027 0.010-0.002 0.020-0.003 0.029-0.004v0l0.012-0.002c0.122-0.020 0.239-0.058 0.35-0.111 0.115-0.042 0.223-0.099 0.325-0.166l0.018-0.012 0.017-0.014 0.2-0.16zM21.957 24.643l0.010-0.009 0.009-0.010c0.322-0.34 0.524-0.808 0.524-1.291s-0.202-0.951-0.524-1.291l0-0-0.009-0.010c-0.355-0.355-0.839-0.516-1.3-0.516s-0.945 0.162-1.3 0.516l-0-0-0.009 0.010c-0.322 0.34-0.524 0.808-0.524 1.291s0.202 0.951 0.524 1.291l0.009 0.010 0.010 0.009c0.34 0.322 0.808 0.524 1.291 0.524s0.951-0.202 1.291-0.524zM21.926 20.004l0.027-0.022 0.024-0.025c0.322-0.34 0.524-0.808 0.524-1.291s-0.202-0.951-0.524-1.291l-0.024-0.025-0.244-0.195-0.018-0.012c-0.102-0.068-0.21-0.125-0.325-0.166-0.108-0.051-0.222-0.089-0.341-0.109-0.356-0.070-0.721-0.036-1.055 0.11-0.24 0.094-0.422 0.225-0.583 0.37l-0.015 0.013-0.014 0.014c-0.322 0.34-0.524 0.808-0.524 1.291s0.202 0.951 0.524 1.291l0.009 0.010 0.010 0.009c0.34 0.322 0.808 0.524 1.291 0.524 0.116 0 0.241-0.018 0.324-0.030l0.013-0.002 0 0 0.011-0.002c0.122-0.020 0.239-0.058 0.35-0.111 0.115-0.042 0.223-0.099 0.325-0.166l0.018-0.012 0.017-0.014 0.2-0.16zM5.333 13.62h21.333c0.457 0 0.833 0.376 0.833 0.833v8.213c0 1.923-0.481 3.45-1.45 4.493-0.963 1.037-2.479 1.674-4.717 1.674h-10.667c-2.238 0-3.754-0.637-4.717-1.674-0.969-1.043-1.45-2.57-1.45-4.493v-8.213c0-0.457 0.376-0.833 0.833-0.833z"></path>
</symbol>
<symbol id="icon-calendar-tick" viewBox="0 0 32 32">
<path fill="#fc8e28" style="fill: var(--color2, #fc8e28); stroke: var(--color1, #eb7101)" stroke="#eb7101" stroke-linejoin="miter" stroke-linecap="butt" stroke-miterlimit="4" stroke-width="1.3333" d="M21.667 4.747v0.608l0.605 0.056c1.676 0.155 2.848 0.723 3.633 1.557 0.787 0.835 1.25 2.006 1.376 3.486-0.001 0-0.001 0-0.001 0v0h-22.558c-0.001-0-0.002-0.001-0.003-0.002 0.127-1.479 0.59-2.649 1.376-3.484 0.785-0.834 1.957-1.401 3.633-1.557l0.605-0.056v-2.688c0-0.178 0.155-0.333 0.333-0.333s0.333 0.155 0.333 0.333v2.667h10v-2.667c0-0.178 0.155-0.333 0.333-0.333s0.333 0.155 0.333 0.333v2.080z"></path>
<path fill="#fc8e28" style="fill: var(--color2, #fc8e28); stroke: var(--color1, #eb7101)" stroke="#eb7101" stroke-linejoin="miter" stroke-linecap="butt" stroke-miterlimit="4" stroke-width="1.3333" d="M21.346 27.739h0l-0.006-0.009c-0.429-0.696-0.674-1.522-0.674-2.397 0-2.579 2.088-4.667 4.667-4.667s4.667 2.088 4.667 4.667c0 0.875-0.245 1.701-0.674 2.397v-0l-0.005 0.009c-0.804 1.352-2.284 2.261-3.987 2.261s-3.183-0.909-3.987-2.261zM28.546 25.249l0 0 0.011-0.010c0.649-0.628 0.71-1.669 0.077-2.348-0.62-0.665-1.681-0.714-2.354-0.087-0 0-0.001 0.001-0.001 0.001l-1.66 1.536-0.187-0.187c-0.647-0.647-1.709-0.647-2.356 0s-0.647 1.709 0 2.356l1.32 1.32c0.332 0.332 0.757 0.489 1.178 0.489 0.402 0 0.819-0.153 1.133-0.444 0-0 0-0 0.001-0.001l2.839-2.626z"></path>
<path fill="#fc8e28" style="fill: var(--color2, #fc8e28); stroke: var(--color1, #eb7101)" stroke="#eb7101" stroke-linejoin="miter" stroke-linecap="butt" stroke-miterlimit="4" stroke-width="1.3333" d="M12.739 24.764l0.013-0.012 0.012-0.013c0.349-0.369 0.569-0.877 0.569-1.405s-0.22-1.036-0.569-1.405l0-0-0.013-0.013c-0.56-0.56-1.43-0.742-2.177-0.426-0.264 0.104-0.462 0.247-0.634 0.402l-0.020 0.018-0.018 0.019c-0.349 0.369-0.569 0.877-0.569 1.405s0.22 1.036 0.569 1.405l0.012 0.013 0.013 0.012c0.369 0.349 0.877 0.569 1.405 0.569s1.036-0.22 1.405-0.569zM12.696 20.134l0.036-0.029 0.032-0.033c0.349-0.369 0.569-0.877 0.569-1.405s-0.22-1.036-0.569-1.405l-0.032-0.033-0.258-0.207-0.024-0.016c-0.11-0.073-0.227-0.135-0.354-0.182-0.117-0.054-0.241-0.095-0.371-0.118-0.661-0.135-1.35 0.084-1.809 0.543l-0-0-0.012 0.013c-0.349 0.369-0.569 0.877-0.569 1.405s0.22 1.036 0.569 1.405l0.012 0.013 0.013 0.012c0.369 0.349 0.877 0.569 1.405 0.569 0.129 0 0.264-0.019 0.346-0.031 0.005-0.001 0.010-0.001 0.015-0.002l0 0 0.015-0.003c0.136-0.023 0.265-0.065 0.387-0.121 0.126-0.047 0.244-0.109 0.354-0.182l0.024-0.016 0.023-0.018 0.2-0.16zM17.405 20.097l0.013-0.012 0.012-0.013c0.349-0.369 0.569-0.877 0.569-1.405s-0.22-1.036-0.569-1.405l0-0-0.013-0.013c-0.757-0.757-2.068-0.748-2.83-0.006l-0.010 0.009-0.009 0.010c-0.349 0.369-0.569 0.877-0.569 1.405s0.22 1.036 0.569 1.405l0.012 0.013 0.013 0.012c0.369 0.349 0.877 0.569 1.405 0.569s1.036-0.22 1.405-0.569zM5.333 13.787h21.333c0.357 0 0.67 0.295 0.68 0.687v2.313c0 0.391-0.355 0.703-0.747 0.648-0.417-0.074-0.84-0.102-1.253-0.102-4.408 0-8 3.592-8 8 0 0.733 0.26 1.676 0.529 2.455 0.145 0.433-0.171 0.878-0.636 0.878h-6.573c-2.206 0-3.672-0.627-4.595-1.62-0.931-1.002-1.405-2.482-1.405-4.38v-8.213c0-0.365 0.302-0.667 0.667-0.667z"></path>
</symbol>
<symbol id="icon-calendar-violette" viewBox="0 0 32 32">
<path fill="#9631f5" style="fill: var(--color3, #9631f5); stroke: var(--color4, #6e0ace)" stroke="#6e0ace" stroke-linejoin="miter" stroke-linecap="butt" stroke-miterlimit="4" stroke-width="1.3333" d="M21.667 4.747v0.608l0.605 0.056c1.676 0.155 2.848 0.723 3.633 1.557 0.787 0.835 1.25 2.006 1.376 3.486-0.001 0-0.001 0-0.001 0v0h-22.558c-0.001-0-0.002-0.001-0.003-0.002 0.127-1.479 0.59-2.649 1.376-3.484 0.785-0.834 1.957-1.401 3.633-1.557l0.605-0.056v-2.688c0-0.178 0.155-0.333 0.333-0.333s0.333 0.155 0.333 0.333v2.667h10v-2.667c0-0.178 0.155-0.333 0.333-0.333s0.333 0.155 0.333 0.333v2.080z"></path>
<path fill="#9631f5" style="fill: var(--color3, #9631f5); stroke: var(--color4, #6e0ace)" stroke="#6e0ace" stroke-linejoin="miter" stroke-linecap="butt" stroke-miterlimit="4" stroke-width="1.3333" d="M12.696 24.8l0.036-0.029 0.032-0.033c0.349-0.369 0.569-0.877 0.569-1.405s-0.22-1.036-0.569-1.405l-0.032-0.033-0.258-0.207-0.024-0.016c-0.11-0.073-0.227-0.135-0.354-0.182-0.118-0.055-0.243-0.096-0.375-0.119-0.386-0.075-0.784-0.039-1.149 0.12-0.263 0.104-0.46 0.247-0.631 0.401l-0.020 0.018-0.018 0.019c-0.349 0.369-0.569 0.877-0.569 1.405s0.22 1.037 0.569 1.405l0.018 0.019 0.020 0.018c0.172 0.155 0.372 0.299 0.638 0.403 0.226 0.093 0.484 0.154 0.755 0.154 0.135 0 0.256-0.018 0.334-0.029 0.010-0.001 0.019-0.003 0.027-0.004l0 0 0.015-0.003c0.136-0.023 0.265-0.065 0.387-0.121 0.122-0.045 0.236-0.105 0.342-0.174 0.076-0.047 0.138-0.099 0.173-0.129 0.025-0.021 0.039-0.034 0.050-0.043 0.013-0.012 0.021-0.018 0.034-0.029zM12.739 20.097l0.013-0.012 0.012-0.013c0.349-0.369 0.569-0.877 0.569-1.405s-0.22-1.036-0.569-1.405l0-0-0.013-0.013c-0.189-0.189-0.412-0.329-0.659-0.426-0.746-0.316-1.617-0.134-2.177 0.426l-0-0-0.012 0.013c-0.349 0.369-0.569 0.877-0.569 1.405s0.22 1.037 0.569 1.405l0.012 0.013 0.013 0.012c0.369 0.349 0.877 0.569 1.405 0.569s1.036-0.22 1.405-0.569zM17.405 24.764l0.013-0.012 0.012-0.013c0.349-0.369 0.569-0.877 0.569-1.405s-0.22-1.036-0.569-1.405l0-0-0.013-0.013c-0.391-0.391-0.92-0.565-1.418-0.565s-1.027 0.175-1.418 0.565l-0-0-0.012 0.013c-0.349 0.369-0.569 0.877-0.569 1.405s0.22 1.037 0.569 1.405l0.012 0.013 0.013 0.012c0.369 0.349 0.877 0.569 1.405 0.569s1.036-0.22 1.405-0.569zM17.363 20.134l0.036-0.029 0.032-0.033c0.349-0.369 0.569-0.877 0.569-1.405s-0.22-1.036-0.569-1.405l0-0-0.013-0.013c-0.56-0.56-1.43-0.742-2.177-0.426-0.247 0.097-0.471 0.237-0.66 0.426l-0-0-0.012 0.013c-0.349 0.369-0.569 0.877-0.569 1.405s0.22 1.037 0.569 1.405l0.012 0.013 0.013 0.012c0.369 0.349 0.877 0.569 1.405 0.569 0.135 0 0.257-0.018 0.334-0.029 0.010-0.001 0.019-0.003 0.027-0.004v0l0.015-0.003c0.136-0.023 0.265-0.065 0.387-0.121 0.126-0.047 0.244-0.109 0.354-0.182l0.024-0.016 0.223-0.178zM22.072 24.764l0.013-0.012 0.012-0.013c0.349-0.369 0.569-0.877 0.569-1.405s-0.22-1.036-0.569-1.405l0-0-0.013-0.013c-0.391-0.391-0.92-0.565-1.418-0.565s-1.027 0.175-1.418 0.565l-0-0-0.012 0.013c-0.349 0.369-0.569 0.877-0.569 1.405s0.22 1.037 0.569 1.405l0.012 0.013 0.013 0.012c0.369 0.349 0.877 0.569 1.405 0.569s1.036-0.22 1.405-0.569zM22.030 20.134l0.036-0.029 0.032-0.033c0.349-0.369 0.569-0.877 0.569-1.405s-0.22-1.036-0.569-1.405l-0.032-0.033-0.036-0.029-0.223-0.178-0.024-0.016c-0.109-0.073-0.227-0.135-0.354-0.182-0.118-0.055-0.243-0.096-0.375-0.119-0.386-0.075-0.784-0.039-1.149 0.12-0.263 0.104-0.46 0.247-0.631 0.401l-0.020 0.018-0.018 0.019c-0.349 0.369-0.569 0.877-0.569 1.405s0.22 1.037 0.569 1.405l0.012 0.013 0.013 0.012c0.369 0.349 0.877 0.569 1.405 0.569 0.129 0 0.264-0.019 0.346-0.031 0.005-0.001 0.010-0.001 0.015-0.002v0l0.015-0.003c0.136-0.023 0.265-0.065 0.387-0.121 0.126-0.047 0.244-0.109 0.354-0.182l0.024-0.016 0.223-0.178zM5.333 13.786h21.333c0.365 0 0.667 0.302 0.667 0.667v8.213c0 1.898-0.475 3.377-1.405 4.38-0.922 0.993-2.389 1.62-4.595 1.62h-10.667c-2.206 0-3.672-0.627-4.595-1.62-0.931-1.002-1.405-2.482-1.405-4.38v-8.213c0-0.365 0.302-0.667 0.667-0.667z"></path>
</symbol>
<symbol id="icon-card-tick" viewBox="0 0 32 32">
<path fill="#9631f5" style="fill: var(--color3, #9631f5); stroke: var(--color4, #6e0ace)" stroke="#6e0ace" stroke-linejoin="miter" stroke-linecap="butt" stroke-miterlimit="4" stroke-width="1.3333" d="M21.346 27.739h0l-0.006-0.009c-0.429-0.696-0.674-1.522-0.674-2.397 0-2.579 2.088-4.667 4.667-4.667s4.667 2.088 4.667 4.667c0 0.875-0.245 1.701-0.674 2.397v-0l-0.005 0.009c-0.804 1.352-2.284 2.261-3.987 2.261s-3.183-0.909-3.987-2.261zM28.546 25.249l0 0 0.011-0.010c0.649-0.628 0.71-1.669 0.077-2.348-0.62-0.665-1.681-0.714-2.354-0.087-0 0-0.001 0.001-0.001 0.001l-1.66 1.536-0.187-0.187c-0.647-0.647-1.709-0.647-2.356 0s-0.647 1.709 0 2.356l1.32 1.32c0.332 0.332 0.757 0.489 1.178 0.489 0.402 0 0.819-0.153 1.133-0.444 0-0 0-0 0.001-0.001l2.839-2.626z"></path>
<path fill="#9631f5" style="fill: var(--color3, #9631f5); stroke: var(--color4, #6e0ace)" stroke="#6e0ace" stroke-linejoin="miter" stroke-linecap="butt" stroke-miterlimit="4" stroke-width="1.3333" d="M28.667 10.067v0.6c0 0.365-0.301 0.667-0.667 0.667h-24c-0.365 0-0.667-0.302-0.667-0.667v-0.613c0-2.685 2.168-4.853 4.853-4.853h15.613c2.685 0 4.867 2.182 4.867 4.867z"></path>
<path fill="#9631f5" style="fill: var(--color3, #9631f5); stroke: var(--color4, #6e0ace)" stroke="#6e0ace" stroke-linejoin="miter" stroke-linecap="butt" stroke-miterlimit="4" stroke-width="1.3333" d="M27.774 17.795l-0.001-0c-1.557-0.524-3.316-0.595-5.122-0.016-1.1 0.352-2.11 0.967-2.929 1.771-1.965 1.908-2.682 4.321-2.478 6.549 0.029 0.341-0.283 0.701-0.709 0.701h-8.347c-2.685 0-4.853-2.168-4.853-4.853v-6.613c0-0.361 0.299-0.67 0.674-0.68h23.993c0.365 0 0.667 0.302 0.667 0.667v1.853c0 0.448-0.443 0.774-0.893 0.622zM8 23.667h2.667c0.915 0 1.667-0.752 1.667-1.667s-0.752-1.667-1.667-1.667h-2.667c-0.915 0-1.667 0.752-1.667 1.667s0.752 1.667 1.667 1.667z"></path>
</symbol>
<symbol id="icon-dollar-circle" viewBox="0 0 32 32">
<path fill="#fc8e28" style="fill: var(--color2, #fc8e28); stroke: var(--color1, #eb7101)" stroke="#eb7101" stroke-linejoin="miter" stroke-linecap="butt" stroke-miterlimit="4" stroke-width="1.3333" d="M17.867 20.56h-0.187v-2.197l0.46 0.159c0.344 0.121 0.447 0.189 0.505 0.26 0.047 0.058 0.142 0.222 0.142 0.738 0 0.611-0.466 1.040-0.92 1.040z"></path>
<path fill="#fc8e28" style="fill: var(--color2, #fc8e28); stroke: var(--color1, #eb7101)" stroke="#eb7101" stroke-linejoin="miter" stroke-linecap="butt" stroke-miterlimit="4" stroke-width="1.3333" d="M3.333 15.904c-0.025-6.991 5.636-12.679 12.628-12.704 6.993-0.012 12.68 5.638 12.705 12.629s-5.636 12.679-12.629 12.704c-6.991 0.025-12.679-5.636-12.704-12.629zM22.12 19.52c0-1.335-0.397-2.29-1-2.964-0.588-0.658-1.32-0.988-1.885-1.184l-1.568-0.561v-3.355c0.593 0.1 1.107 0.665 1.107 1.424 0 0.915 0.752 1.667 1.667 1.667s1.667-0.752 1.667-1.667c0-2.548-1.951-4.668-4.44-4.77v-0.11c0-0.915-0.752-1.667-1.667-1.667s-1.667 0.752-1.667 1.667v0.107h-0.2c-2.36 0-4.253 1.971-4.253 4.373 0 1.335 0.397 2.29 1 2.964 0.588 0.658 1.32 0.988 1.886 1.185l1.568 0.561v3.355c-0.593-0.1-1.107-0.665-1.107-1.424 0-0.915-0.752-1.667-1.667-1.667s-1.667 0.752-1.667 1.667c0 2.548 1.951 4.668 4.44 4.77v0.11c0 0.915 0.752 1.667 1.667 1.667s1.667-0.752 1.667-1.667v-0.107h0.2c2.36 0 4.253-1.971 4.253-4.373z"></path>
<path fill="#fc8e28" style="fill: var(--color2, #fc8e28); stroke: var(--color1, #eb7101)" stroke="#eb7101" stroke-linejoin="miter" stroke-linecap="butt" stroke-miterlimit="4" stroke-width="1.3333" d="M14.333 13.65l-0.46-0.159c-0.344-0.121-0.447-0.189-0.505-0.26-0.047-0.058-0.142-0.222-0.142-0.738 0-0.636 0.463-1.053 0.907-1.053h0.2v2.21z"></path>
</symbol>
<symbol id="icon-location-tick" viewBox="0 0 32 32">
<path fill="#fc8e28" style="fill: var(--color2, #fc8e28); stroke: var(--color1, #eb7101)" stroke="#eb7101" stroke-linejoin="miter" stroke-linecap="butt" stroke-miterlimit="4" stroke-width="1" d="M27.006 11.711l-0-0.001c-1.323-5.89-6.458-8.543-11.005-8.543h-0.013c-4.533 0-9.656 2.652-10.992 8.531l-0 0.001c-1.511 6.608 2.526 12.261 6.313 15.915l15.699-15.902zM27.006 11.711c1.498 6.608-2.54 12.249-6.326 15.903l-0.001 0.001M27.006 11.711l-6.328 15.904M20.678 27.615c-1.303 1.266-2.99 1.899-4.678 1.899s-3.375-0.632-4.693-1.9l9.371 0.001zM15.394 18.394l5.333-5.333c0.582-0.582 0.582-1.539 0-2.12s-1.538-0.582-2.12 0l-4.273 4.273-0.94-0.94c-0.582-0.582-1.539-0.582-2.12 0s-0.582 1.539 0 2.12l2 2c0.299 0.299 0.681 0.44 1.060 0.44s0.761-0.141 1.060-0.44z"></path>
</symbol>
<symbol id="icon-location-tick-violette" viewBox="0 0 32 32">
<path fill="#9631f5" style="fill: var(--color3, #9631f5); stroke: var(--color4, #6e0ace)" stroke="#6e0ace" stroke-linejoin="miter" stroke-linecap="butt" stroke-miterlimit="4" stroke-width="1.3333" d="M26.843 11.747l-0-0.001c-1.302-5.796-6.353-8.413-10.843-8.413v0 0 0 0 0 0 0 0 0 0h-0.013c-4.475 0-9.515 2.616-10.83 8.401l-0 0.001c-1.49 6.517 2.488 12.112 6.266 15.758l15.421-15.745zM26.843 11.747c1.478 6.518-2.502 12.1-6.279 15.746l-0.002 0.002M26.843 11.747l-6.281 15.748M20.562 27.495c-1.271 1.234-2.915 1.851-4.562 1.851s-3.292-0.617-4.577-1.853l9.139 0.002zM15.512 18.511l5.333-5.333c0.647-0.647 0.647-1.709 0-2.356s-1.709-0.647-2.356 0l-4.155 4.155-0.822-0.822c-0.647-0.647-1.709-0.647-2.356 0s-0.647 1.709 0 2.356l2 2c0.332 0.332 0.757 0.489 1.178 0.489s0.847-0.157 1.178-0.489z"></path>
</symbol>
<symbol id="icon-messages" viewBox="0 0 32 32">
<path fill="#fc8e28" style="fill: var(--color2, #fc8e28); stroke: var(--color1, #eb7101)" stroke="#eb7101" stroke-linejoin="miter" stroke-linecap="butt" stroke-miterlimit="4" stroke-width="1" d="M24.093 22.203l0.246-0.172c2.733-1.916 4.494-4.956 4.494-8.377 0-5.759-5.010-10.487-11.273-10.487-5.359 0-9.812 3.471-10.967 8.084-0.014 0.064 0.006 0.124 0.053 0.168s0.102 0.057 0.159 0.039c0-0 0.001-0 0.001-0l0.154 0.476c0.96-0.32 1.987-0.48 3.040-0.48 5.147 0 9.333 3.973 9.333 8.853 0 1.387-0.36 2.773-1.027 4l5.787-2.104zM24.093 22.203v0z"></path>
<path fill="#fc8e28" style="fill: var(--color2, #fc8e28); stroke: var(--color1, #eb7101)" stroke="#eb7101" stroke-linejoin="miter" stroke-linecap="butt" stroke-miterlimit="4" stroke-width="1" d="M15.379 24.196l-0-0-0.005 0.006c-1.223 1.482-3.173 2.445-5.374 2.445h-0.137l-3.604 2.14c-0.217 0.133-0.527-0.047-0.495-0.327l0.371-2.925-0.249-0.173c-1.664-1.155-2.718-2.994-2.718-5.056 0-2.161 1.153-4.075 2.943-5.219v0l0.004-0.002c1.105-0.72 2.437-1.132 3.887-1.132 3.81 0 6.833 2.874 6.833 6.353 0 1.46-0.539 2.814-1.454 3.889z"></path>
</symbol>
<symbol id="icon-search" viewBox="0 0 32 32">
<path fill="#9631f5" style="fill: var(--color3, #9631f5); stroke: var(--color4, #6e0ace)" stroke="#6e0ace" stroke-linejoin="miter" stroke-linecap="butt" stroke-miterlimit="4" stroke-width="1.3333" d="M27.333 15.333c0 6.627-5.373 12-12 12s-12-5.373-12-12c0-6.627 5.373-12 12-12s12 5.373 12 12z"></path>
<path fill="#9631f5" style="fill: var(--color3, #9631f5); stroke: var(--color4, #6e0ace)" stroke="#6e0ace" stroke-linejoin="miter" stroke-linecap="butt" stroke-miterlimit="4" stroke-width="1.3333" d="M28.4 28.667c-0.073 0-0.14-0.030-0.182-0.071l-2.48-2.48c-0.094-0.094-0.107-0.262 0.004-0.381 0.095-0.091 0.261-0.101 0.379 0.009l2.475 2.475c0.092 0.092 0.106 0.254 0.004 0.373-0.063 0.053-0.136 0.076-0.199 0.076z"></path>
</symbol>
<symbol id="icon-shuffle" viewBox="0 0 32 32">
<path fill="#9631f5" style="fill: var(--color3, #9631f5); stroke: var(--color4, #6e0ace)" stroke="#6e0ace" stroke-linejoin="miter" stroke-linecap="butt" stroke-miterlimit="4" stroke-width="1.3333" d="M28.116 23.662c0.058 0.026 0.091 0.049 0.114 0.070 0.038 0.046 0.060 0.079 0.076 0.113 0.001 0.003 0.002 0.008 0.003 0.016 0.004 0.023 0.008 0.049 0.014 0.094 0.002 0.023 0.005 0.043 0.007 0.060-0.004 0.027-0.011 0.063-0.023 0.109-0.021 0.041-0.041 0.066-0.059 0.084l-2.667 2.667c-0.068 0.068-0.149 0.098-0.235 0.098s-0.167-0.030-0.235-0.098c-0.126-0.126-0.126-0.344 0-0.471l2.090-2.090-5.429 0.019c-1.207 0-2.372-0.571-3.113-1.528l-0.001-0.001-1.629-2.097c-0.113-0.144-0.096-0.339 0.062-0.464 0.15-0.118 0.35-0.087 0.456 0.052h-0l0.005 0.007 1.623 2.089c0.611 0.811 1.583 1.275 2.583 1.275h0.016l6.224-0.027c0 0 0.001 0 0.001 0 0.046 0 0.086 0.010 0.115 0.023z"></path>
<path fill="#9631f5" style="fill: var(--color3, #9631f5); stroke: var(--color4, #6e0ace)" stroke="#6e0ace" stroke-linejoin="miter" stroke-linecap="butt" stroke-miterlimit="4" stroke-width="1.3333" d="M7.467 7.013l-3.467 0.013-0.003 1.333h0.002c-0.178-0.001-0.332-0.155-0.332-0.333s0.155-0.333 0.333-0.333h0.003l3.464-0.013v-0.667zM7.477 8.346l-3.477 0.013 3.493-0.68c1.267 0 2.452 0.604 3.193 1.63 0 0 0 0 0 0l1.441 2.002c0.101 0.138 0.079 0.346-0.075 0.465-0.063 0.041-0.141 0.063-0.199 0.063-0.096 0-0.203-0.047-0.277-0.143l-1.434-1.991c-0.608-0.86-1.599-1.36-2.649-1.36h-0.016z"></path>
<path fill="#9631f5" style="fill: var(--color3, #9631f5); stroke: var(--color4, #6e0ace)" stroke="#6e0ace" stroke-linejoin="miter" stroke-linecap="butt" stroke-miterlimit="4" stroke-width="1.3333" d="M28.356 7.874v0zM28.311 7.924c0.008 0.018 0.015 0.040 0.019 0.064-0.003 0.016-0.005 0.035-0.007 0.056-0.006 0.045-0.009 0.071-0.014 0.094-0.002 0.010-0.003 0.015-0.004 0.018l-0.009 0.020-0.005 0.014c-0.001 0.001-0.002 0.002-0.003 0.004-0.005 0.007-0.013 0.018-0.026 0.034-0.001 0.002-0.003 0.004-0.005 0.006-0.019 0.017-0.035 0.035-0.051 0.052-0.019 0.014-0.045 0.030-0.080 0.046-0.061 0.023-0.095 0.028-0.126 0.028-0 0-0.001 0-0.001 0l-6.067-0.027c-1.092 0-2.112 0.553-2.715 1.457 0 0 0 0 0 0l-8.522 12.776c-0.729 1.105-1.945 1.754-3.27 1.754h-0.027l-3.4-0.013c-0.186 0-0.333-0.149-0.333-0.333 0-0.185 0.148-0.332 0.331-0.333l3.402 0.027c1.092 0 2.112-0.553 2.715-1.457 0-0 0-0 0-0l8.522-12.776c0.728-1.104 1.958-1.754 3.27-1.754h0.027l5.255 0.019-2.091-2.091c-0.126-0.126-0.126-0.344 0-0.471s0.344-0.126 0.47 0l2.667 2.667c0.023 0.023 0.047 0.056 0.076 0.119z"></path>
</symbol>
<symbol id="icon-trend-up" viewBox="0 0 32 32">
<path fill="#fc8e28" style="fill: var(--color2, #fc8e28); stroke: var(--color1, #eb7101)" stroke="#eb7101" stroke-linejoin="miter" stroke-linecap="butt" stroke-miterlimit="4" stroke-width="1.3333" d="M28.653 10.412v11.175c0 2.294-0.681 4.045-1.858 5.222s-2.928 1.858-5.222 1.858h-11.16c-2.294 0-4.045-0.681-5.222-1.859s-1.858-2.933-1.858-5.234v-11.16c0-2.294 0.681-4.045 1.858-5.222s2.928-1.858 5.222-1.858h11.173c2.294 0 4.045 0.681 5.22 1.858s1.853 2.927 1.847 5.22zM23.173 15.373v-0.667h-0.013v-1.813c0-0.167-0.018-0.387-0.12-0.622-0.162-0.387-0.478-0.701-0.866-0.861l-0.021-0.009-0.022-0.007c-0.159-0.053-0.354-0.101-0.571-0.101h-2.48c-0.888 0-1.6 0.712-1.6 1.6 0 0.503 0.229 0.95 0.588 1.242l-1.46 1.46-0.901-1.343c-0.266-0.426-0.712-0.671-1.177-0.716-0.474-0.045-0.938 0.116-1.281 0.459l-3.982 3.982c-0.604 0.627-0.617 1.629 0.008 2.254 0.305 0.305 0.717 0.462 1.125 0.462 0.4 0 0.801-0.139 1.125-0.462l2.6-2.6 0.901 1.343c0.266 0.426 0.712 0.671 1.177 0.716 0.474 0.045 0.938-0.116 1.281-0.459l2.846-2.846c0.293 0.36 0.739 0.588 1.242 0.588 0.888 0 1.6-0.712 1.6-1.6z"></path>
</symbol>
<symbol id="icon-user" viewBox="0 0 32 32">
<path fill="#fc8e28" style="fill: var(--color2, #fc8e28); stroke: var(--color1, #eb7101)" stroke="#eb7101" stroke-linejoin="miter" stroke-linecap="butt" stroke-miterlimit="4" stroke-width="1" d="M22.167 9.333c0 3.406-2.761 6.167-6.167 6.167s-6.167-2.761-6.167-6.167c0-3.406 2.761-6.167 6.167-6.167s6.167 2.761 6.167 6.167z"></path>
<path fill="#fc8e28" style="fill: var(--color2, #fc8e28); stroke: var(--color1, #eb7101)" opacity="0.4" stroke="#eb7101" stroke-linejoin="miter" stroke-linecap="butt" stroke-miterlimit="4" stroke-width="1" d="M4.38 29.333c0-5.158 5.122-9.5 11.62-9.5s11.62 4.342 11.62 9.5c0 0.097-0.070 0.167-0.167 0.167h-22.907c-0.097 0-0.167-0.069-0.167-0.167z"></path>
<path fill="#fc8e28" style="fill: var(--color2, #fc8e28)" d="M30.36 27.573l-1.013-1.013c0.533-0.8 0.84-1.76 0.84-2.787 0-2.813-2.28-5.093-5.093-5.093s-5.093 2.28-5.093 5.093 2.28 5.093 5.093 5.093c1.027 0 1.987-0.307 2.787-0.84l1.013 1.013c0.2 0.2 0.467 0.307 0.733 0.307s0.533-0.107 0.733-0.307c0.413-0.413 0.413-1.067 0-1.467z"></path>
</symbol>
<symbol id="icon-wallet-add" viewBox="0 0 32 32">
<path fill="#eb7101" style="fill: var(--color1, #eb7101); stroke: var(--color1, #eb7101)" stroke="#eb7101" stroke-linejoin="miter" stroke-linecap="butt" stroke-miterlimit="4" stroke-width="1" d="M9.777 7.456l0.006-0.014 0.081-0.217c0.010-0.024 0.019-0.047 0.027-0.066 0.002-0.005 0.004-0.010 0.006-0.014 0.007-0.017 0.012-0.030 0.018-0.043 0.007-0.016 0.011-0.027 0.015-0.034l0.004-0.008c0.001-0.002 0.001-0.003 0.001-0.002l0.017-0.029 0.013-0.031c0.761-1.765 1.53-2.824 2.413-3.363 0.746-0.455 1.645-0.582 2.847-0.34l-2.849 6.631h-2.884c-0.254 0-0.508 0.009-0.761 0.029l0.994-2.385 0.051-0.115z"></path>
<path fill="#fc8e28" style="fill: var(--color2, #fc8e28); stroke: var(--color1, #eb7101)" stroke="#eb7101" stroke-linejoin="miter" stroke-linecap="butt" stroke-miterlimit="4" stroke-width="1" d="M22.507 9.927h-7.587l2.548-5.923c0.046 0.018 0.094 0.035 0.142 0.051l2.932 1.234c1.609 0.667 2.663 1.333 3.292 2.088 0.114 0.152 0.208 0.282 0.3 0.432l-0 0 0.005 0.008c0.102 0.159 0.168 0.298 0.204 0.432l0.010 0.038 0.016 0.036c0.046 0.104 0.072 0.177 0.089 0.252l0.004 0.016 0.005 0.016c0.134 0.454 0.174 0.97 0.105 1.554-0.677-0.154-1.366-0.235-2.065-0.235z"></path>
<path fill="#fc8e28" style="fill: var(--color2, #fc8e28); stroke: var(--color1, #eb7101)" stroke="#eb7101" stroke-linejoin="miter" stroke-linecap="butt" stroke-miterlimit="4" stroke-width="1" d="M7.131 13.406l0.001-0c0.735-0.318 1.52-0.479 2.361-0.479h13.013c0.604 0 1.183 0.086 1.738 0.246 2.462 0.753 4.269 3.043 4.269 5.761v2.6c0 0.252-0.013 0.506-0.026 0.76-0.122 2.247-0.803 3.857-1.974 4.912-1.175 1.059-2.92 1.628-5.314 1.628h-10.4c-0.306 0-0.59-0.024-0.882-0.063l-0.016-0.002-0.016-0.001c-2.039-0.135-3.537-0.742-4.56-1.763s-1.633-2.52-1.774-4.559l-0.001-0.014-0.002-0.014c-0.039-0.308-0.063-0.593-0.063-0.885v-2.6c0-2.473 1.501-4.603 3.645-5.527zM17.5 24v-1.913h1.833c0.818 0 1.5-0.66 1.5-1.5 0-0.823-0.677-1.5-1.5-1.5h-1.833v-1.753c0-0.823-0.677-1.5-1.5-1.5s-1.5 0.677-1.5 1.5v1.753h-1.833c-0.823 0-1.5 0.677-1.5 1.5 0 0.84 0.682 1.5 1.5 1.5h1.833v1.913c0 0.823 0.677 1.5 1.5 1.5s1.5-0.677 1.5-1.5z"></path>
</symbol>
<symbol id="icon-wallet-check" viewBox="0 0 32 32">
<path fill="#fc8e28" style="fill: var(--color2, #fc8e28); stroke: var(--color1, #eb7101)" stroke="#eb7101" stroke-linejoin="miter" stroke-linecap="butt" stroke-miterlimit="4" stroke-width="1" d="M2.537 27.824h0l-0.004-0.007c-0.445-0.722-0.699-1.578-0.699-2.484 0-2.671 2.163-4.833 4.833-4.833s4.833 2.163 4.833 4.833c0 0.906-0.254 1.762-0.699 2.484v-0l-0.004 0.007c-0.833 1.401-2.366 2.342-4.13 2.342s-3.297-0.942-4.13-2.342zM9.633 25.26l0.002-0.002c0.599-0.559 0.642-1.515 0.078-2.12v0c-0.559-0.598-1.514-0.642-2.119-0.078-0 0-0.001 0.001-0.001 0.001l-1.779 1.645-0.3-0.3c-0.582-0.582-1.539-0.582-2.12 0s-0.582 1.539 0 2.12l1.32 1.32c0.299 0.299 0.681 0.44 1.060 0.44 0.362 0 0.738-0.138 1.020-0.4 0-0 0-0 0-0l2.839-2.626z"></path>
<path fill="#fc8e28" style="fill: var(--color2, #fc8e28); stroke: var(--color1, #eb7101)" stroke="#eb7101" stroke-linejoin="miter" stroke-linecap="butt" stroke-miterlimit="4" stroke-width="1" d="M25.333 17.167h3.333c0.097 0 0.167 0.070 0.167 0.167v4c0 0.097-0.070 0.167-0.167 0.167h-3.333c-1.191 0-2.167-0.976-2.167-2.167s0.976-2.167 2.167-2.167z"></path>
<path fill="#fc8e28" style="fill: var(--color2, #fc8e28); stroke: var(--color1, #eb7101)" stroke="#eb7101" stroke-linejoin="miter" stroke-linecap="butt" stroke-miterlimit="4" stroke-width="1" d="M21.687 7.553l-0 0 0.006 0.006c0.017 0.016 0.022 0.027 0.023 0.030 0 0.001-0 0.007-0.006 0.018-0.016 0.030-0.066 0.079-0.163 0.079 0 0-0 0-0 0l-11.040-0.013c-0.193 0-0.292-0.234-0.153-0.373l0.001-0.001 2.332-2.346c1.778-1.765 4.648-1.765 6.426-0l2.574 2.6z"></path>
<path fill="#fc8e28" style="fill: var(--color2, #fc8e28); stroke: var(--color1, #eb7101)" stroke="#eb7101" stroke-linejoin="miter" stroke-linecap="butt" stroke-miterlimit="4" stroke-width="1" d="M28.683 24.731h-0l-0.002 0.007c-0.744 2.514-2.88 4.095-5.881 4.095h-8.667c-0.062 0-0.123-0.031-0.166-0.103-0.045-0.075-0.053-0.167-0.017-0.247v0l0.003-0.006c0.421-0.982 0.694-2.103 0.694-3.144 0-4.316-3.517-7.833-7.833-7.833-1.083 0-2.138 0.228-3.106 0.655-0.090 0.038-0.195 0.029-0.28-0.020-0.082-0.047-0.113-0.112-0.113-0.175v-1.96c0-1.711 0.515-3.132 1.399-4.169 0.883-1.036 2.162-1.722 3.75-1.922l0.008-0.001 0.008-0.001c0.304-0.049 0.638-0.074 0.988-0.074h13.333c0.336 0 0.638 0.013 0.918 0.060l0.013 0.002 0.013 0.001c2.501 0.285 4.276 1.791 4.937 4.031l0.001 0.004c0.039 0.129-0.054 0.235-0.162 0.235h-3.053c-3.201 0-5.742 2.921-5.050 6.24 0.492 2.442 2.743 4.093 5.183 4.093h2.92c0.111 0 0.201 0.108 0.163 0.231z"></path>
</symbol>
</defs>
</svg>
