<svg width="34" height="24" viewBox="0 0 34 24" fill="none" xmlns="http://www.w3.org/2000/svg">
<rect x="0.5" y="0.5" width="33" height="23" rx="3.5" fill="white"/>
<rect x="0.5" y="0.5" width="33" height="23" rx="3.5" stroke="#F2F4F7"/>
<path fill-rule="evenodd" clip-rule="evenodd" d="M10.7503 14.8583H8.69056L7.146 8.79247C7.07269 8.51344 6.91703 8.26676 6.68806 8.1505C6.11664 7.85833 5.48696 7.6258 4.80005 7.50853V7.27499H8.11813C8.57607 7.27499 8.91953 7.6258 8.97677 8.03323L9.77817 12.4087L11.8369 7.27499H13.8394L10.7503 14.8583ZM14.9843 14.8583H13.039L14.6408 7.27499H16.5861L14.9843 14.8583ZM19.1028 9.37581C19.16 8.96738 19.5035 8.73384 19.9042 8.73384C20.5338 8.6752 21.2197 8.79248 21.7922 9.08364L22.1356 7.45091C21.5632 7.21737 20.9335 7.1001 20.3621 7.1001C18.4741 7.1001 17.1003 8.1505 17.1003 9.60834C17.1003 10.7174 18.0734 11.2997 18.7603 11.6505C19.5035 12.0003 19.7897 12.2338 19.7324 12.5836C19.7324 13.1083 19.16 13.3419 18.5886 13.3419C17.9017 13.3419 17.2147 13.167 16.5861 12.8748L16.2426 14.5086C16.9295 14.7997 17.6727 14.917 18.3596 14.917C20.4766 14.9746 21.7922 13.9252 21.7922 12.3501C21.7922 10.3666 19.1028 10.2503 19.1028 9.37581ZM28.6 14.8583L27.0555 7.27499H25.3965C25.053 7.27499 24.7095 7.50853 24.5951 7.85833L21.7349 14.8583H23.7374L24.1371 13.7503H26.5976L26.8265 14.8583H28.6ZM25.6827 9.31718L26.2541 12.1752H24.6523L25.6827 9.31718Z" fill="#172B85"/>
</svg>
