<svg width="24" height="24" viewBox="0 0 24 24" fill="none" xmlns="http://www.w3.org/2000/svg">
<path d="M22 8.6901C22 9.8801 21.81 10.9801 21.48 12.0001H2.52C2.19 10.9801 2 9.8801 2 8.6901C2 5.6001 4.49 3.1001 7.56 3.1001C9.37 3.1001 10.99 3.9801 12 5.3301C13.01 3.9801 14.63 3.1001 16.44 3.1001C19.51 3.1001 22 5.6001 22 8.6901Z" fill="#DE5D1D"/>
<path opacity="0.4" d="M6.96467 17.5933C5.45088 16.2923 4.03807 14.5879 3.22595 12.5H20.7741C19.962 14.5879 18.5492 16.2923 17.0354 17.5933C15.365 19.0289 13.6004 19.9483 12.459 20.3366L12.459 20.3366L12.4536 20.3385C12.3538 20.3737 12.1893 20.4 12 20.4C11.8108 20.4 11.6463 20.3737 11.5464 20.3385L11.5464 20.3385L11.5411 20.3366C10.3996 19.9483 8.63502 19.0289 6.96467 17.5933Z" fill="#DE5D1D" stroke="#DE5D1D"/>
</svg>
